<?xml version="1.0" encoding="utf-8"?>
<!-- Generator: Adobe Illustrator 22.0.1, SVG Export Plug-In . SVG Version: 6.00 Build 0)  -->
<svg version="1.1" id="图层_1" xmlns="http://www.w3.org/2000/svg" xmlns:xlink="http://www.w3.org/1999/xlink" x="0px" y="0px"
	 viewBox="0 0 660.8 488" style="enable-background:new 0 0 660.8 488;" xml:space="preserve">
<style type="text/css">
	.st0{fill:#FFFFFF;}
</style>
<path class="st0" d="M610.1,219l-80.8-80.8l-6.7-6.7c-3.6-3.6-7.4-6.7-11.4-9.5c-13.8-9.5-29.9-14.3-46.1-14.3
	c-20.8,0-41.6,7.9-57.4,23.8l-49.3,49.3c-3.7,3.7-5.6,8.7-5.6,13.6s1.9,9.8,5.6,13.5l13.8,13.8l19.2,19.2c3.7,3.7,8.6,5.6,13.6,5.6
	c0.9,0,1.8-0.1,2.7-0.2c4-0.6,7.8-2.4,10.8-5.4l24.6-24.6c12.1-12.1,31.8-12.1,43.9,0l16.3,16.3c6.1,6.1,9.1,14,9.1,21.9
	c0,0.2,0,0.3,0,0.5c-0.1,7.8-3.1,15.5-9.1,21.5l-36.7,36.7l-94.3,94.3C346.6,433.2,313,446,279.4,446c-12.5,0-25.1-1.8-37.2-5.4
	c22.8,12.6,47.5,20.7,72.7,24.3c10,1.4,20,2.1,30.1,2.1c54.4,0,108.8-20.8,150.3-62.3l114.8-114.8c9.8-9.8,14.7-22.6,14.7-35.5
	C624.8,241.5,619.9,228.8,610.1,219z"/>
<path class="st0" d="M331.4,328.2c3.7-3.7,5.6-8.7,5.6-13.6s-1.9-9.8-5.6-13.6l-13.8-13.7l-19.2-19.2c-4.4-4.4-10.5-6.2-16.3-5.4
	l0,0c-4,0.6-7.8,2.4-10.8,5.4l-24.7,24.6l-0.2-0.2c-6.1,6.1-14,9.1-21.9,9.1s-15.9-3-21.9-9.1l-16-16c-6.1-6.1-9.1-14-9.1-21.9
	c0-0.2,0-0.3,0-0.5c0.1-7.8,3.1-15.5,9.1-21.5l36.7-36.7l94.4-94.4C343.4,75.8,377,63,410.6,63c12.5,0,25.1,1.8,37.2,5.4
	c-22.8-12.6-47.5-20.7-72.7-24.3c-10-1.4-20-2.1-30.1-2.1c-54.4,0-108.8,20.8-150.3,62.3L79.7,219c-9.8,9.8-14.7,22.6-14.7,35.5
	s4.9,25.7,14.7,35.5l80.8,80.8l6.7,6.7c3.6,3.6,7.4,6.7,11.4,9.5c13.8,9.5,29.9,14.3,46,14.3c20.8,0,41.6-7.9,57.4-23.8L331.4,328.2
	z"/>
</svg>
