<?xml version="1.0" encoding="utf-8"?>
<!-- Generator: Adobe Illustrator 23.0.3, SVG Export Plug-In . SVG Version: 6.00 Build 0)  -->
<svg version="1.1" id="图层_1" xmlns="http://www.w3.org/2000/svg" xmlns:xlink="http://www.w3.org/1999/xlink" x="0px" y="0px"
	 viewBox="0 0 375 610" style="enable-background:new 0 0 375 610;" xml:space="preserve">
<style type="text/css">
	.st0{fill-rule:evenodd;clip-rule:evenodd;fill:#FFFFFF;}
	.st1{fill-rule:evenodd;clip-rule:evenodd;fill:#53AFFA;}
	.st2{fill:#231815;}
	.st3{fill-rule:evenodd;clip-rule:evenodd;fill:#005BAB;}
	.st4{fill-rule:evenodd;clip-rule:evenodd;fill:#231815;}
	.st5{fill:#7EC3FB;}
	.st6{fill:#4AABF9;}
</style>
<title>Group 3</title>
<desc>Created with Sketch.</desc>
<rect id="Rectangle" class="st0" width="375" height="610"/>
<g id="Group" transform="translate(376.772280, 138.500000) rotate(-315.000000) translate(-376.772280, -138.500000) translate(227.272280, 93.000000)">
	<g id="basket-egg-copy" transform="translate(129.086345, 26.142544)">
		<path class="st1" d="M-76.4-39.7c0.5-0.6,1.3-0.8,2.1-0.7c0.1,0,0.1,0,0.2,0s0.1,0,0.2,0.1c0.3,0.1,0.6,0.3,0.9,0.6l0.1,0.1
			c0.2,0.2,0.4,0.5,0.6,0.7v0.1c0.3,0.5,0.6,1.1,0.7,1.7v0.1c0.1,0.3,0.1,0.5,0.2,0.8H-78l0,0c0-0.1,0-0.1,0-0.2
			c0-0.1,0-0.2,0.1-0.3c0-0.1,0-0.2,0.1-0.3v-0.1c0.1-0.5,0.3-1,0.6-1.5l0,0l0.1-0.1l0.1-0.1C-76.9-39.2-76.7-39.4-76.4-39.7
			L-76.4-39.7z M-73.1-38.8L-73.1-38.8c-0.1,0.1-0.1,0.1-0.1,0.2c0,0.1,0,0.2,0,0.2c0.3,0.4,0.4,0.9,0.6,1.3l0.1,0.3
			c0,0.1,0.1,0.2,0.2,0.2s0.2,0,0.3-0.1c0.1-0.1,0.1-0.2,0.1-0.3l-0.1-0.2c-0.1-0.5-0.4-1.1-0.7-1.5C-72.7-38.9-72.9-38.9-73.1-38.8
			z M-74.1-39.7L-74.1-39.7c-0.1,0.1-0.1,0.3,0.1,0.4c0.1,0.1,0.2,0.1,0.3,0.2c0.1,0.1,0.1,0.1,0.2,0.1s0.2,0,0.2-0.1
			c0.1-0.1,0.1-0.3,0-0.4c-0.1-0.1-0.2-0.2-0.3-0.3C-73.8-39.9-74-39.9-74.1-39.7z M-83.2-36.3L-83.2-36.3c-0.1-0.3-0.1-0.6-0.1-0.9
			v-0.1c0-0.6,0.2-1.3,0.6-1.7c0.3-0.3,0.8-0.5,1.2-0.6l0,0h0.3h0.1h0.2c0.3,0,0.6,0.1,0.9,0.1l0,0c0.6,0.1,1.1,0.4,1.7,0.7h0.1
			l0.3,0.2l-0.1,0.2l-0.1,0.2c0,0.1-0.1,0.2-0.1,0.3l0,0c0,0.1-0.1,0.2-0.1,0.3s-0.1,0.3-0.1,0.4l0,0l0,0c0,0.1,0,0.2-0.1,0.3
			c0,0.1,0,0.2-0.1,0.3c0,0,0,0,0,0.1s0,0.2,0,0.3l0,0L-83.2-36.3L-83.2-36.3z M-80.4-39.2c0,0.1,0,0.2,0,0.2s0.1,0.1,0.2,0.1h0.1
			c0.4,0.1,0.9,0.3,1.3,0.5c0.1,0.1,0.3,0.1,0.4,0s0.1-0.1,0.1-0.2s0-0.2-0.1-0.2h-0.1c-0.5-0.3-0.9-0.5-1.4-0.6H-80
			c-0.1,0-0.2,0-0.2,0S-80.3-39.2-80.4-39.2z M-81.1-39.5c-0.1,0-0.2,0-0.2,0.1c-0.1,0.1-0.1,0.1-0.1,0.2c0,0.2,0.1,0.3,0.3,0.3h0.1
			c0.2,0,0.3-0.1,0.3-0.3s-0.1-0.3-0.3-0.3H-81.1L-81.1-39.5z M-79.8-40.3c-0.3-0.1-0.6-0.1-0.8-0.1h-0.1c0.2-0.6,0.5-1.1,0.8-1.6
			l0.1-0.1c0.3-0.5,0.7-0.9,1.2-1.3l0.1-0.1c0.2-0.2,0.4-0.3,0.6-0.4l0.2-0.1c0.6-0.3,1.2-0.3,1.8-0.2c0.6,0.2,1.1,0.7,1.3,1.2v0.1
			c0.1,0.3,0.2,0.6,0.3,0.9l0,0c0.1,0.3,0.1,0.5,0.1,0.8l0,0l0,0h-0.1c-0.1,0-0.2,0-0.2,0h-0.1h-0.1c-0.1,0-0.3,0-0.4,0h-0.1
			c-0.1,0-0.1,0-0.2,0.1c-0.3,0.1-0.6,0.2-0.9,0.4l-0.1,0.1h-0.1c-0.1,0-0.1,0.1-0.2,0.2l-0.1,0.1c-0.3,0.2-0.5,0.5-0.7,0.8l0,0
			h-0.1l-0.2-0.1c0,0,0,0-0.1,0l0,0C-78.5-39.8-79.1-40.1-79.8-40.3L-79.8-40.3z M-75.5-43.1L-75.5-43.1c-0.1,0-0.1,0.1-0.1,0.2
			s0,0.2,0,0.2c0.1,0.1,0.1,0.2,0.2,0.3l0.1,0.1c0.1,0.2,0.2,0.4,0.2,0.6v0.1c0,0.1,0.2,0.2,0.3,0.2c0,0,0,0,0.1,0
			c0.2,0,0.3-0.2,0.2-0.4v-0.1c-0.1-0.3-0.1-0.5-0.2-0.7l-0.1-0.1c-0.1-0.1-0.1-0.2-0.2-0.4C-75.2-43.2-75.4-43.2-75.5-43.1z
			 M-76.4-43.6L-76.4-43.6c0,0.2,0,0.3,0.2,0.4c0.1,0,0.1,0,0.2,0.1h0.1c0.1,0,0.3-0.1,0.3-0.2c0-0.1,0-0.3-0.2-0.3
			c-0.1,0-0.2-0.1-0.2-0.1C-76.2-43.9-76.4-43.8-76.4-43.6z M-70.7-34.9c-0.1,0.1-0.1,0.1-0.2,0.1v0.2v0.1v1.8
			c0,0.6-0.2,1.1-0.5,1.6c-0.4,0.5-0.9,0.9-1.6,1.1l0,0l0,0l0,0c-0.2,0-0.4,0.1-0.5,0.1h-7.8c-0.2,0-0.4,0-0.5-0.1l0,0l0,0l0,0
			c-0.6-0.2-1.2-0.5-1.6-1.1c-0.3-0.4-0.5-1-0.5-1.5v-1.8c0-0.2,0.1-0.3,0.3-0.3h-0.2c-0.2,0-0.3-0.1-0.4-0.3s0-0.4,0.1-0.5
			s0.2-0.1,0.3-0.1H-71c0.2,0,0.3,0.1,0.4,0.3C-70.5-35.2-70.5-35-70.7-34.9z M-71.4-32.7v-0.5l-0.8,0.8l0.6,0.6
			C-71.5-32.1-71.4-32.4-71.4-32.7z M-73.7-30.6l-0.2-0.2l-0.2,0.2H-73.7z M-74.9-30.6l0.6-0.6L-75-32l-0.8,0.8l0.6,0.6H-74.9z
			 M-77.6-30.6h0.4l0.6-0.6l-0.8-0.8l-0.8,0.8L-77.6-30.6z M-80-30.6h0.4l0.6-0.6l-0.8-0.8l-0.8,0.8L-80-30.6z M-81-30.8l-0.2,0.2
			h0.4L-81-30.8z M-83.4-34.2v0.2l0.2-0.2H-83.4z M-83.2-31.8l0.6-0.6l-0.8-0.8v0.5C-83.4-32.4-83.4-32.1-83.2-31.8z M-83-33.6
			l0.8,0.8l0.8-0.8l-0.6-0.6h-0.4L-83-33.6z M-80-34.2l-0.6,0.6l0.8,0.8l0.8-0.8l-0.6-0.6H-80z M-77.6-34.2l-0.6,0.6l0.8,0.8
			l0.8-0.8l-0.6-0.6H-77.6z M-75.2-34.2l-0.6,0.6l0.8,0.8l0.8-0.8l-0.6-0.6H-75.2z M-74-34.2l0.2,0.2l0.2-0.2H-74z M-75.5-32.4
			l-0.8-0.8l-0.8,0.8l0.8,0.8L-75.5-32.4z M-76.4-34.2l0.2,0.2l0.2-0.2H-76.4z M-77.9-32.4l-0.8-0.8l-0.8,0.8l0.8,0.8L-77.9-32.4z
			 M-78.8-34.2l0.2,0.2l0.2-0.2H-78.8z M-81.2-34.2L-81-34l0.2-0.2H-81.2z M-81-33.2l-0.8,0.8l0.8,0.8l0.8-0.8L-81-33.2z
			 M-78.6-30.8l-0.2,0.2h0.4L-78.6-30.8z M-76.2-30.8l-0.2,0.2h0.4L-76.2-30.8z M-74.6-32.4l0.8,0.8l0.8-0.8l-0.8-0.8L-74.6-32.4z
			 M-73.4-33.6l0.8,0.8l0.8-0.8l-0.6-0.6h-0.4L-73.4-33.6z M-71.6-34.2l0.2,0.2v-0.2H-71.6z M-82.9-31.3c0.2,0.3,0.6,0.5,0.9,0.6
			l0.5-0.5l-0.8-0.8L-82.9-31.3z M-72.9-30.7L-72.9-30.7c0.4-0.1,0.7-0.3,0.9-0.6l-0.7-0.7l-0.8,0.8L-72.9-30.7z"/>
	</g>
	<g id="basket-egg-copy-3" transform="translate(129.086345, 76.032895)">
		<path class="st1" d="M-76.4-39.7c0.5-0.6,1.3-0.8,2.1-0.7c0.1,0,0.1,0,0.2,0s0.1,0,0.2,0.1c0.3,0.1,0.6,0.3,0.9,0.6l0.1,0.1
			c0.2,0.2,0.4,0.5,0.6,0.7v0.1c0.3,0.5,0.6,1.1,0.7,1.7v0.1c0.1,0.3,0.1,0.5,0.2,0.8H-78l0,0c0-0.1,0-0.1,0-0.2
			c0-0.1,0-0.2,0.1-0.3c0-0.1,0-0.2,0.1-0.3v-0.1c0.1-0.5,0.3-1,0.6-1.5l0,0l0.1-0.1l0.1-0.1C-76.9-39.2-76.7-39.4-76.4-39.7
			L-76.4-39.7z M-73.1-38.8L-73.1-38.8c-0.1,0.1-0.1,0.1-0.1,0.2c0,0.1,0,0.2,0,0.2c0.3,0.4,0.4,0.9,0.6,1.3l0.1,0.3
			c0,0.1,0.1,0.2,0.2,0.2s0.2,0,0.3-0.1c0.1-0.1,0.1-0.2,0.1-0.3l-0.1-0.2c-0.1-0.5-0.4-1.1-0.7-1.5C-72.7-38.9-72.9-38.9-73.1-38.8
			z M-74.1-39.7L-74.1-39.7c-0.1,0.1-0.1,0.3,0.1,0.4c0.1,0.1,0.2,0.1,0.3,0.2c0.1,0.1,0.1,0.1,0.2,0.1s0.2,0,0.2-0.1
			c0.1-0.1,0.1-0.3,0-0.4c-0.1-0.1-0.2-0.2-0.3-0.3C-73.8-39.9-74-39.9-74.1-39.7z M-83.2-36.3L-83.2-36.3c-0.1-0.3-0.1-0.6-0.1-0.9
			v-0.1c0-0.6,0.2-1.3,0.6-1.7c0.3-0.3,0.8-0.5,1.2-0.6l0,0h0.3h0.1h0.2c0.3,0,0.6,0.1,0.9,0.1l0,0c0.6,0.1,1.1,0.4,1.7,0.7h0.1
			l0.3,0.2l-0.1,0.2l-0.1,0.2c0,0.1-0.1,0.2-0.1,0.3l0,0c0,0.1-0.1,0.2-0.1,0.3s-0.1,0.3-0.1,0.4l0,0l0,0c0,0.1,0,0.2-0.1,0.3
			c0,0.1,0,0.2-0.1,0.3c0,0,0,0,0,0.1s0,0.2,0,0.3l0,0L-83.2-36.3L-83.2-36.3z M-80.4-39.2c0,0.1,0,0.2,0,0.2c0,0.1,0.1,0.1,0.2,0.1
			h0.1c0.4,0.1,0.9,0.3,1.3,0.5c0.1,0.1,0.3,0.1,0.4,0s0.1-0.1,0.1-0.2s0-0.2-0.1-0.2h-0.1c-0.5-0.3-0.9-0.5-1.4-0.6H-80
			c-0.1,0-0.2,0-0.2,0C-80.3-39.3-80.3-39.2-80.4-39.2z M-81.1-39.5c-0.1,0-0.2,0-0.2,0.1s-0.1,0.1-0.1,0.2c0,0.2,0.1,0.3,0.3,0.3
			h0.1c0.2,0,0.3-0.1,0.3-0.3s-0.1-0.3-0.3-0.3H-81.1L-81.1-39.5z M-79.8-40.3c-0.3-0.1-0.6-0.1-0.8-0.1h-0.1
			c0.2-0.6,0.5-1.1,0.8-1.6l0.1-0.1c0.3-0.5,0.7-0.9,1.2-1.3l0.1-0.1c0.2-0.2,0.4-0.3,0.6-0.4l0.2-0.1c0.6-0.3,1.2-0.3,1.8-0.2
			c0.6,0.2,1.1,0.7,1.3,1.2v0.1c0.1,0.3,0.2,0.6,0.3,0.9l0,0c0.1,0.3,0.1,0.5,0.1,0.8l0,0l0,0h-0.1c-0.1,0-0.2,0-0.2,0h-0.1h-0.1
			c-0.1,0-0.3,0-0.4,0h-0.1c-0.1,0-0.1,0-0.2,0.1c-0.3,0.1-0.6,0.2-0.9,0.4l-0.1,0.1h-0.1c-0.1,0-0.1,0.1-0.2,0.2l-0.1,0.1
			c-0.3,0.2-0.5,0.5-0.7,0.8l0,0h-0.1l-0.2-0.1c0,0,0,0-0.1,0l0,0C-78.5-39.8-79.1-40.1-79.8-40.3L-79.8-40.3z M-75.5-43.1
			L-75.5-43.1c-0.1,0-0.1,0.1-0.1,0.2c0,0.1,0,0.2,0,0.2c0.1,0.1,0.1,0.2,0.2,0.3l0.1,0.1c0.1,0.2,0.2,0.4,0.2,0.6v0.1
			c0,0.1,0.2,0.2,0.3,0.2c0,0,0,0,0.1,0c0.2,0,0.3-0.2,0.2-0.4v-0.1c-0.1-0.3-0.1-0.5-0.2-0.7l-0.1-0.1c-0.1-0.1-0.1-0.2-0.2-0.4
			C-75.2-43.2-75.4-43.2-75.5-43.1z M-76.4-43.6L-76.4-43.6c0,0.2,0,0.3,0.2,0.4c0.1,0,0.1,0,0.2,0.1h0.1c0.1,0,0.3-0.1,0.3-0.2
			c0-0.1,0-0.3-0.2-0.3c-0.1,0-0.2-0.1-0.2-0.1C-76.2-43.9-76.4-43.8-76.4-43.6z M-70.7-34.9c-0.1,0.1-0.1,0.1-0.2,0.1v0.2v0.1v1.8
			c0,0.6-0.2,1.1-0.5,1.6c-0.4,0.5-0.9,0.9-1.6,1.1l0,0l0,0l0,0c-0.2,0-0.4,0.1-0.5,0.1h-7.8c-0.2,0-0.4,0-0.5-0.1l0,0l0,0l0,0
			c-0.6-0.2-1.2-0.5-1.6-1.1c-0.3-0.4-0.5-1-0.5-1.5v-1.8c0-0.2,0.1-0.3,0.3-0.3h-0.2c-0.2,0-0.3-0.1-0.4-0.3s0-0.4,0.1-0.5
			s0.2-0.1,0.3-0.1H-71c0.2,0,0.3,0.1,0.4,0.3C-70.5-35.2-70.5-35-70.7-34.9z M-71.4-32.7v-0.5l-0.8,0.8l0.6,0.6
			C-71.5-32.1-71.4-32.4-71.4-32.7z M-73.7-30.6l-0.2-0.2l-0.2,0.2H-73.7z M-74.9-30.6l0.6-0.6L-75-32l-0.8,0.8l0.6,0.6H-74.9z
			 M-77.6-30.6h0.4l0.6-0.6l-0.8-0.8l-0.8,0.8L-77.6-30.6z M-80-30.6h0.4l0.6-0.6l-0.8-0.8l-0.8,0.8L-80-30.6z M-81-30.8l-0.2,0.2
			h0.4L-81-30.8z M-83.4-34.2v0.2l0.2-0.2H-83.4z M-83.2-31.8l0.6-0.6l-0.8-0.8v0.5C-83.4-32.4-83.4-32.1-83.2-31.8z M-83-33.6
			l0.8,0.8l0.8-0.8l-0.6-0.6h-0.4L-83-33.6z M-80-34.2l-0.6,0.6l0.8,0.8l0.8-0.8l-0.6-0.6H-80z M-77.6-34.2l-0.6,0.6l0.8,0.8
			l0.8-0.8l-0.6-0.6H-77.6z M-75.2-34.2l-0.6,0.6l0.8,0.8l0.8-0.8l-0.6-0.6H-75.2z M-74-34.2l0.2,0.2l0.2-0.2H-74z M-75.5-32.4
			l-0.8-0.8l-0.8,0.8l0.8,0.8L-75.5-32.4z M-76.4-34.2l0.2,0.2l0.2-0.2H-76.4z M-77.9-32.4l-0.8-0.8l-0.8,0.8l0.8,0.8L-77.9-32.4z
			 M-78.8-34.2l0.2,0.2l0.2-0.2H-78.8z M-81.2-34.2L-81-34l0.2-0.2H-81.2z M-81-33.2l-0.8,0.8l0.8,0.8l0.8-0.8L-81-33.2z
			 M-78.6-30.8l-0.2,0.2h0.4L-78.6-30.8z M-76.2-30.8l-0.2,0.2h0.4L-76.2-30.8z M-74.6-32.4l0.8,0.8l0.8-0.8l-0.8-0.8L-74.6-32.4z
			 M-73.4-33.6l0.8,0.8l0.8-0.8l-0.6-0.6h-0.4L-73.4-33.6z M-71.6-34.2l0.2,0.2v-0.2H-71.6z M-82.9-31.3c0.2,0.3,0.6,0.5,0.9,0.6
			l0.5-0.5l-0.8-0.8L-82.9-31.3z M-72.9-30.7L-72.9-30.7c0.4-0.1,0.7-0.3,0.9-0.6l-0.7-0.7l-0.8,0.8L-72.9-30.7z"/>
	</g>
	<g id="egg-nest" transform="translate(127.885542, 0.598684)">
		<path class="st1" d="M-73.3-29.7l-2.5-0.9c-0.2-0.1-0.3,0-0.4,0.2s0,0.3,0.2,0.4l0.9,0.3h-3.4l0.4-0.4c0.1-0.1,0.1-0.3,0-0.4
			s-0.3-0.1-0.4,0l-0.8,0.8c-1.5,0-2.8-0.9-3.5-2.2l0.8-0.3c0.1,0,0.2-0.1,0.2-0.2c0-0.1,0-0.2-0.1-0.3s-0.2-0.1-0.3,0l-0.8,0.3
			c-0.1-0.2-0.2-0.4-0.2-0.7h3.8c0.2,0,0.3-0.1,0.3-0.3s-0.1-0.3-0.3-0.3h-3.9c0-0.1,0-0.2,0-0.3c0-0.5,0.4-0.9,0.9-0.9h1.7l0.5,0.5
			c0.1,0.1,0.1,0.1,0.2,0.1s0.2,0,0.2-0.1c0.1-0.1,0.1-0.1,0.1-0.2c0-0.1,0-0.2-0.1-0.2l-0.1-0.1h1.5l0.8,0.8
			c0.1,0.1,0.1,0.1,0.2,0.1s0.2,0,0.2-0.1c0.1-0.1,0.1-0.1,0.1-0.2c0-0.1,0-0.2-0.1-0.2l-0.4-0.4h1.8l-1,1c-0.1,0.1-0.1,0.1-0.1,0.2
			c0,0.1,0,0.2,0.1,0.2c0.1,0.1,0.1,0.1,0.2,0.1s0.2,0,0.2-0.1l1.4-1.4h4.4c0.5,0,0.9,0.4,0.9,0.9h-3.6c-0.2,0-0.3,0.1-0.3,0.3
			s0.1,0.3,0.3,0.3h1.7L-72-33c-0.1,0.1-0.1,0.1-0.1,0.2c0,0.1,0,0.2,0.1,0.2c0.1,0.1,0.1,0.1,0.2,0.1s0.2,0,0.2-0.1l0.8-0.8h1
			c-0.1,0.5-0.3,1.1-0.5,1.5h-4.5c-0.2,0-0.3,0.1-0.3,0.3c0,0.2,0.1,0.3,0.3,0.3h4.1C-71.3-30.4-72.2-29.9-73.3-29.7h0.2
			c0.1,0,0.1,0.1,0.2,0.2c0,0.1,0,0.2,0,0.2c0,0.1-0.1,0.1-0.1,0.1c-0.1,0-0.1,0.1-0.2,0.1h-0.1l0,0l-1.7-0.6h1.3
			C-73.7-29.7-73.5-29.7-73.3-29.7z M-73-39.6L-73-39.6c0.3,0.1,0.6,0.3,0.9,0.6l0.1,0.1c0.2,0.2,0.4,0.5,0.6,0.7v0.1
			c0.3,0.5,0.6,1.1,0.7,1.7v0.1c0.1,0.3,0.1,0.6,0.2,0.8h-3.7l0.4-0.4c0.1-0.1,0.1-0.2,0.1-0.3s-0.1-0.2-0.2-0.2s-0.2,0-0.3,0.1
			l-0.8,0.8h-1.9l0,0c0-0.1,0-0.1,0-0.2c0-0.1,0-0.2,0.1-0.3c0-0.1,0-0.2,0.1-0.3v-0.1c0.1-0.5,0.3-1,0.6-1.5l0,0L-76-38l0.1-0.1
			c0.2-0.3,0.3-0.5,0.6-0.7l0.1-0.1c0.5-0.6,1.3-0.9,2.1-0.7C-73-39.6-73-39.6-73-39.6C-73.2-39.7-73.1-39.6-73-39.6z M-72.1-38.1
			L-72.1-38.1c-0.1,0.1-0.1,0.1-0.2,0.2s0,0.2,0,0.2c0.3,0.4,0.4,0.9,0.6,1.3l0.1,0.3c0,0.1,0.1,0.2,0.2,0.2s0.2,0,0.3-0.1
			c0.1-0.1,0.1-0.2,0.1-0.3l-0.1-0.2c-0.1-0.6-0.4-1.1-0.6-1.6C-71.8-38.1-72-38.2-72.1-38.1z M-72.7-39.1L-72.7-39.1
			c-0.1-0.1-0.3,0-0.4,0.1c0,0.1-0.1,0.1,0,0.2c0,0.1,0.1,0.1,0.1,0.2c0.1,0.1,0.2,0.1,0.3,0.2c0.1,0.1,0.1,0.1,0.2,0.1
			s0.2,0,0.2-0.1c0.1-0.1,0.1-0.3,0-0.4C-72.5-39-72.6-39-72.7-39.1z M-82.3-35.6L-82.3-35.6c-0.1-0.3-0.1-0.6-0.1-1v-0.1
			c0-0.6,0.2-1.3,0.6-1.8c0.3-0.3,0.8-0.6,1.3-0.6h0.3h0.1h0.2c0.3,0,0.6,0.1,0.9,0.1l0,0c0.6,0.1,1.1,0.4,1.7,0.7h0.1L-77-38
			l-0.1,0.2l-0.1,0.2c0,0.1-0.1,0.2-0.1,0.3l0,0c0,0.1-0.1,0.2-0.1,0.3s-0.1,0.3-0.1,0.4l0,0l0,0c0,0.1-0.1,0.2-0.1,0.3
			s0,0.2-0.1,0.3c0,0,0,0,0,0.1s0,0.2,0,0.3l0,0h-3.1v-0.9c0-0.2-0.1-0.3-0.3-0.3c-0.2,0-0.3,0.1-0.3,0.3v0.2l-0.2-0.2
			c-0.1-0.1-0.3-0.1-0.4,0s-0.1,0.3,0,0.4l0.5,0.5L-82.3-35.6C-82.3-35.5-82.3-35.5-82.3-35.6z M-79.5-38.4c0,0.1,0,0.2,0,0.2
			s0.1,0.1,0.2,0.1h0.1c0.4,0.1,0.9,0.3,1.3,0.5c0.1,0.1,0.3,0.1,0.4,0s0.1-0.1,0.1-0.2c0-0.1,0-0.2-0.1-0.2h-0.1
			c-0.5-0.3-0.9-0.5-1.4-0.6h-0.1c-0.1,0-0.2,0-0.2,0C-79.4-38.6-79.4-38.5-79.5-38.4z M-80.2-38.8c-0.1,0-0.2,0-0.2,0.1
			c-0.1,0.1-0.1,0.1-0.1,0.2c0,0.2,0.1,0.3,0.3,0.3h0.1c0.2,0,0.3-0.1,0.3-0.3s-0.1-0.3-0.3-0.3H-80.2L-80.2-38.8z M-80.4-39.7
			L-80.4-39.7L-80.4-39.7L-80.4-39.7c0.2-0.7,0.5-1.4,0.8-1.9l0,0l0,0c0.4-0.5,0.8-1,1.3-1.4l0.1-0.1c0.3-0.3,0.7-0.5,1-0.7l0.2-0.1
			c0.7-0.3,1.4-0.3,2.1-0.1s1.2,0.7,1.6,1.4l0.1,0.2c0.2,0.4,0.3,0.8,0.4,1.2l0,0c0.1,0.4,0.1,0.8,0.1,1.2c-0.1,0-0.1-0.1-0.2-0.1
			c-0.2-0.1-0.3-0.1-0.5-0.2c-0.1,0-0.2,0-0.3,0h-0.1c-0.1,0-0.3,0-0.4,0s-0.1,0-0.2,0s-0.3,0.1-0.4,0.1s-0.1,0-0.2,0.1
			c-0.3,0.1-0.6,0.3-0.8,0.5c-0.1,0-0.1,0.1-0.2,0.2l-0.1,0.1c-0.1,0.1-0.1,0.1-0.2,0.2c-0.1,0.1-0.1,0.2-0.2,0.2
			c-0.1,0.1-0.2,0.2-0.2,0.3c0,0,0,0,0,0.1l0,0h-0.1l-0.2-0.2c0,0,0,0-0.1,0l0,0c-0.6-0.4-1.2-0.6-1.9-0.8l0,0h-0.2h-0.2h-0.2
			c-0.1,0-0.1,0-0.2,0s-0.2,0-0.3,0h-0.3L-80.4-39.7L-80.4-39.7z M-74.8-42.7c0.1-0.1,0-0.3-0.1-0.4c-0.1,0-0.2-0.1-0.2-0.1
			c-0.2-0.1-0.3,0-0.4,0.2s0,0.3,0.2,0.4c0.1,0,0.1,0,0.2,0.1h0.1C-74.9-42.5-74.8-42.6-74.8-42.7z M-73.9-40.7L-73.9-40.7
			c0.1,0,0.1-0.1,0.2-0.1s0.1-0.2,0-0.2v-0.1c-0.1-0.3-0.1-0.5-0.2-0.8L-74-42c-0.1-0.1-0.1-0.2-0.2-0.4c-0.1-0.1-0.2-0.1-0.3-0.1
			s-0.2,0.1-0.2,0.2c0,0.1,0,0.2,0,0.3c0.1,0.1,0.1,0.2,0.2,0.3l0.1,0.1c0.1,0.2,0.2,0.4,0.2,0.6v0.1
			C-74.2-40.8-74.1-40.7-73.9-40.7L-73.9-40.7z M-77.4-31.2c0.2,0,0.3-0.1,0.3-0.3c0-0.2-0.1-0.3-0.3-0.3h-3.9
			c-0.2,0-0.3,0.1-0.3,0.3c0,0.2,0.1,0.3,0.3,0.3h0.9l-0.5,0.4c-0.1,0-0.1,0.1-0.1,0.2s0,0.2,0.1,0.2c0.1,0.1,0.1,0.1,0.2,0.1
			s0.1,0,0.2-0.1l1.1-0.9L-77.4-31.2L-77.4-31.2z M-78-32.5h3.6c0.2,0,0.3-0.1,0.3-0.3s-0.1-0.3-0.3-0.3H-78c-0.2,0-0.3,0.1-0.3,0.3
			S-78.2-32.5-78-32.5z M-83.7-33.7h0.3c0,0.2,0,0.4,0.1,0.6h-0.4c-0.1,0-0.2,0-0.2-0.1c-0.1-0.1-0.1-0.2,0-0.3
			C-84-33.6-83.9-33.7-83.7-33.7z M-69.3-31.8c0.2,0,0.3,0.1,0.3,0.3c0,0.2-0.1,0.3-0.3,0.3h-1.3c0.2-0.2,0.3-0.4,0.4-0.6
			C-70.2-31.8-69.3-31.8-69.3-31.8z M-69.3-33.4h-0.3c0-0.2,0-0.4,0-0.6h0.3c0.1,0,0.3,0.1,0.3,0.2c0,0,0,0,0,0.1v0.1
			C-69.1-33.5-69.2-33.4-69.3-33.4z M-83.7-32.2l0.6-0.2c0.1,0.2,0.2,0.4,0.3,0.6l-0.6,0.2l-0.2,0.1h-0.1c-0.1,0-0.3-0.1-0.3-0.2
			s0.1-0.3,0.2-0.3L-83.7-32.2z M-77.7-34.9L-77.7-34.9L-77.7-34.9L-77.7-34.9z M-79.4-29.7h0.8l-0.5,0.5c-0.1,0.1-0.1,0.1-0.2,0.1
			s-0.2,0-0.2-0.1c-0.1-0.1-0.1-0.1-0.1-0.2S-79.5-29.6-79.4-29.7L-79.4-29.7z"/>
	</g>
	<g id="egg-nest-copy" transform="translate(127.885542, 50.489035)">
		<path class="st1" d="M-73.3-29.7l-2.5-0.9c-0.2-0.1-0.3,0-0.4,0.2s0,0.3,0.2,0.4l0.9,0.3h-3.4l0.4-0.4c0.1-0.1,0.1-0.3,0-0.4
			s-0.3-0.1-0.4,0l-0.8,0.8c-1.5,0-2.8-0.9-3.5-2.2l0.8-0.3c0.1,0,0.2-0.1,0.2-0.2c0-0.1,0-0.2-0.1-0.3s-0.2-0.1-0.3,0l-0.8,0.3
			c-0.1-0.2-0.2-0.4-0.2-0.7h3.8c0.2,0,0.3-0.1,0.3-0.3s-0.1-0.3-0.3-0.3h-3.9c0-0.1,0-0.2,0-0.3c0-0.5,0.4-0.9,0.9-0.9h1.7l0.5,0.5
			c0.1,0.1,0.1,0.1,0.2,0.1s0.2,0,0.2-0.1c0.1-0.1,0.1-0.1,0.1-0.2c0-0.1,0-0.2-0.1-0.2l-0.1-0.1h1.5l0.8,0.8
			c0.1,0.1,0.1,0.1,0.2,0.1s0.2,0,0.2-0.1c0.1-0.1,0.1-0.1,0.1-0.2c0-0.1,0-0.2-0.1-0.2l-0.4-0.4h1.8l-1,1c-0.1,0.1-0.1,0.1-0.1,0.2
			c0,0.1,0,0.2,0.1,0.2c0.1,0.1,0.1,0.1,0.2,0.1s0.2,0,0.2-0.1l1.4-1.4h4.4c0.5,0,0.9,0.4,0.9,0.9h-3.6c-0.2,0-0.3,0.1-0.3,0.3
			s0.1,0.3,0.3,0.3h1.7L-72-33c-0.1,0.1-0.1,0.1-0.1,0.2c0,0.1,0,0.2,0.1,0.2c0.1,0.1,0.1,0.1,0.2,0.1s0.2,0,0.2-0.1l0.8-0.8h1
			c-0.1,0.5-0.3,1.1-0.5,1.5h-4.5c-0.2,0-0.3,0.1-0.3,0.3c0,0.2,0.1,0.3,0.3,0.3h4.1C-71.3-30.4-72.2-29.9-73.3-29.7h0.2
			c0.1,0,0.1,0.1,0.2,0.2c0,0.1,0,0.2,0,0.2c0,0.1-0.1,0.1-0.1,0.1c-0.1,0-0.1,0.1-0.2,0.1h-0.1l0,0l-1.7-0.6h1.3
			C-73.7-29.7-73.5-29.7-73.3-29.7z M-73-39.6L-73-39.6c0.3,0.1,0.6,0.3,0.9,0.6l0.1,0.1c0.2,0.2,0.4,0.5,0.6,0.7v0.1
			c0.3,0.5,0.6,1.1,0.7,1.7v0.1c0.1,0.3,0.1,0.6,0.2,0.8h-3.7l0.4-0.4c0.1-0.1,0.1-0.2,0.1-0.3s-0.1-0.2-0.2-0.2s-0.2,0-0.3,0.1
			l-0.8,0.8h-1.9l0,0c0-0.1,0-0.1,0-0.2c0-0.1,0-0.2,0.1-0.3c0-0.1,0-0.2,0.1-0.3v-0.1c0.1-0.5,0.3-1,0.6-1.5l0,0L-76-38l0.1-0.1
			c0.2-0.3,0.3-0.5,0.6-0.7l0.1-0.1c0.5-0.6,1.3-0.9,2.1-0.7C-73-39.6-73-39.6-73-39.6C-73.2-39.7-73.1-39.6-73-39.6z M-72.1-38.1
			L-72.1-38.1c-0.1,0.1-0.1,0.1-0.2,0.2c0,0.1,0,0.2,0,0.2c0.3,0.4,0.4,0.9,0.6,1.3l0.1,0.3c0,0.1,0.1,0.2,0.2,0.2s0.2,0,0.3-0.1
			c0.1-0.1,0.1-0.2,0.1-0.3l-0.1-0.2c-0.1-0.6-0.4-1.1-0.6-1.6C-71.8-38.1-72-38.2-72.1-38.1z M-72.7-39.1L-72.7-39.1
			c-0.1-0.1-0.3,0-0.4,0.1c0,0.1-0.1,0.1,0,0.2c0,0.1,0.1,0.1,0.1,0.2c0.1,0.1,0.2,0.1,0.3,0.2c0.1,0.1,0.1,0.1,0.2,0.1
			s0.2,0,0.2-0.1c0.1-0.1,0.1-0.3,0-0.4C-72.5-39-72.6-39-72.7-39.1z M-82.3-35.6L-82.3-35.6c-0.1-0.3-0.1-0.6-0.1-1v-0.1
			c0-0.6,0.2-1.3,0.6-1.8c0.3-0.3,0.8-0.6,1.3-0.6h0.3h0.1h0.2c0.3,0,0.6,0.1,0.9,0.1l0,0c0.6,0.1,1.1,0.4,1.7,0.7h0.1L-77-38
			l-0.1,0.2l-0.1,0.2c0,0.1-0.1,0.2-0.1,0.3l0,0c0,0.1-0.1,0.2-0.1,0.3s-0.1,0.3-0.1,0.4l0,0l0,0c0,0.1-0.1,0.2-0.1,0.3
			s0,0.2-0.1,0.3c0,0,0,0,0,0.1s0,0.2,0,0.3l0,0h-3.1v-0.9c0-0.2-0.1-0.3-0.3-0.3c-0.2,0-0.3,0.1-0.3,0.3v0.2l-0.2-0.2
			c-0.1-0.1-0.3-0.1-0.4,0s-0.1,0.3,0,0.4l0.5,0.5L-82.3-35.6C-82.3-35.5-82.3-35.5-82.3-35.6z M-79.5-38.4c0,0.1,0,0.2,0,0.2
			c0,0.1,0.1,0.1,0.2,0.1h0.1c0.4,0.1,0.9,0.3,1.3,0.5c0.1,0.1,0.3,0.1,0.4,0s0.1-0.1,0.1-0.2c0-0.1,0-0.2-0.1-0.2h-0.1
			c-0.5-0.3-0.9-0.5-1.4-0.6h-0.1c-0.1,0-0.2,0-0.2,0C-79.4-38.6-79.4-38.5-79.5-38.4z M-80.2-38.8c-0.1,0-0.2,0-0.2,0.1
			c-0.1,0.1-0.1,0.1-0.1,0.2c0,0.2,0.1,0.3,0.3,0.3h0.1c0.2,0,0.3-0.1,0.3-0.3s-0.1-0.3-0.3-0.3H-80.2L-80.2-38.8z M-80.4-39.7
			L-80.4-39.7L-80.4-39.7L-80.4-39.7c0.2-0.7,0.5-1.4,0.8-1.9l0,0l0,0c0.4-0.5,0.8-1,1.3-1.4l0.1-0.1c0.3-0.3,0.7-0.5,1-0.7l0.2-0.1
			c0.7-0.3,1.4-0.3,2.1-0.1s1.2,0.7,1.6,1.4l0.1,0.2c0.2,0.4,0.3,0.8,0.4,1.2l0,0c0.1,0.4,0.1,0.8,0.1,1.2c-0.1,0-0.1-0.1-0.2-0.1
			c-0.2-0.1-0.3-0.1-0.5-0.2c-0.1,0-0.2,0-0.3,0h-0.1c-0.1,0-0.3,0-0.4,0s-0.1,0-0.2,0s-0.3,0.1-0.4,0.1s-0.1,0-0.2,0.1
			c-0.3,0.1-0.6,0.3-0.8,0.5c-0.1,0-0.1,0.1-0.2,0.2l-0.1,0.1c-0.1,0.1-0.1,0.1-0.2,0.2c-0.1,0.1-0.1,0.2-0.2,0.2
			c-0.1,0.1-0.2,0.2-0.2,0.3c0,0,0,0,0,0.1l0,0h-0.1l-0.2-0.2c0,0,0,0-0.1,0l0,0c-0.6-0.4-1.2-0.6-1.9-0.8l0,0h-0.2h-0.2h-0.2
			c-0.1,0-0.1,0-0.2,0s-0.2,0-0.3,0h-0.3L-80.4-39.7L-80.4-39.7z M-74.8-42.7c0.1-0.1,0-0.3-0.1-0.4c-0.1,0-0.2-0.1-0.2-0.1
			c-0.2-0.1-0.3,0-0.4,0.2s0,0.3,0.2,0.4c0.1,0,0.1,0,0.2,0.1h0.1C-74.9-42.5-74.8-42.6-74.8-42.7z M-73.9-40.7L-73.9-40.7
			c0.1,0,0.1-0.1,0.2-0.1c0-0.1,0.1-0.2,0-0.2v-0.1c-0.1-0.3-0.1-0.5-0.2-0.8L-74-42c-0.1-0.1-0.1-0.2-0.2-0.4
			c-0.1-0.1-0.2-0.1-0.3-0.1s-0.2,0.1-0.2,0.2c0,0.1,0,0.2,0,0.3c0.1,0.1,0.1,0.2,0.2,0.3l0.1,0.1c0.1,0.2,0.2,0.4,0.2,0.6v0.1
			C-74.2-40.8-74.1-40.7-73.9-40.7L-73.9-40.7z M-77.4-31.2c0.2,0,0.3-0.1,0.3-0.3c0-0.2-0.1-0.3-0.3-0.3h-3.9
			c-0.2,0-0.3,0.1-0.3,0.3c0,0.2,0.1,0.3,0.3,0.3h0.9l-0.5,0.4c-0.1,0-0.1,0.1-0.1,0.2s0,0.2,0.1,0.2c0.1,0.1,0.1,0.1,0.2,0.1
			s0.1,0,0.2-0.1l1.1-0.9L-77.4-31.2L-77.4-31.2z M-78-32.5h3.6c0.2,0,0.3-0.1,0.3-0.3s-0.1-0.3-0.3-0.3H-78c-0.2,0-0.3,0.1-0.3,0.3
			S-78.2-32.5-78-32.5z M-83.7-33.7h0.3c0,0.2,0,0.4,0.1,0.6h-0.4c-0.1,0-0.2,0-0.2-0.1c-0.1-0.1-0.1-0.2,0-0.3
			C-84-33.6-83.9-33.7-83.7-33.7z M-69.3-31.8c0.2,0,0.3,0.1,0.3,0.3c0,0.2-0.1,0.3-0.3,0.3h-1.3c0.2-0.2,0.3-0.4,0.4-0.6
			C-70.2-31.8-69.3-31.8-69.3-31.8z M-69.3-33.4h-0.3c0-0.2,0-0.4,0-0.6h0.3c0.1,0,0.3,0.1,0.3,0.2c0,0,0,0,0,0.1v0.1
			C-69.1-33.5-69.2-33.4-69.3-33.4z M-83.7-32.2l0.6-0.2c0.1,0.2,0.2,0.4,0.3,0.6l-0.6,0.2l-0.2,0.1h-0.1c-0.1,0-0.3-0.1-0.3-0.2
			s0.1-0.3,0.2-0.3L-83.7-32.2z M-77.7-34.9L-77.7-34.9L-77.7-34.9L-77.7-34.9z M-79.4-29.7h0.8l-0.5,0.5c-0.1,0.1-0.1,0.1-0.2,0.1
			s-0.2,0-0.2-0.1c-0.1-0.1-0.1-0.1-0.1-0.2S-79.5-29.6-79.4-29.7L-79.4-29.7z"/>
	</g>
	<g id="egg-gift-copy" transform="translate(77.451807, 75.434211)">
		<path class="st1" d="M-71.1-36L-71.1-36c0-0.1,0-0.2,0-0.3c0-0.3,0-0.6-0.1-0.9l0,0l-0.1-0.3c-0.1-0.4-0.2-0.8-0.3-1.2
			c0,0,0,0,0-0.1l0,0c-0.3-1-0.7-1.9-1.3-2.7l-0.1-0.1c-0.4-0.5-0.8-1-1.3-1.4l-0.1-0.1c-1-0.8-2.2-1.2-3.4-1.3
			c-1.2,0-2.4,0.5-3.4,1.3l-0.1,0.1c-0.5,0.4-0.9,0.9-1.3,1.4l-0.1,0.1c-0.6,0.8-1,1.7-1.3,2.7l0,0v0.1c-0.1,0.4-0.2,0.8-0.3,1.2
			c-0.1,0.5-0.2,1-0.2,1.6l0,0c0,0.1,0,0.1,0,0.2c0,0.8,0.2,1.6,0.5,2.3c0.1,0.1,0.1,0.3,0.2,0.4c0.2,0.4,0.4,0.7,0.7,1.1
			c0.5,0.6,1.1,1.2,1.8,1.6c0.2,0.1,0.3,0.2,0.5,0.3h0.1h0.1c0.3,0.2,0.7,0.3,1,0.4c1.3,0.4,2.7,0.3,3.9-0.1l0,0
			c0.3-0.1,0.5-0.2,0.8-0.3l0,0h0.1c0.3-0.1,0.5-0.3,0.8-0.4c0.6-0.4,1.1-0.9,1.5-1.4c0.3-0.3,0.5-0.7,0.7-1.1V-33
			c0.1-0.1,0.1-0.2,0.2-0.3c0.3-0.7,0.5-1.5,0.5-2.4C-71.1-35.8-71.1-35.9-71.1-36z M-71.7-36.3h-2.4v-0.9h2.3
			C-71.8-36.9-71.8-36.6-71.7-36.3z M-73-33.7L-73-33.7c-0.3-0.1-0.3-0.2-0.3-0.4c0.2-0.5,0.3-1,0.3-1.6h0.6c0,0.6-0.1,1.2-0.4,1.8
			C-72.7-33.8-72.9-33.7-73-33.7L-73-33.7z M-74.3-41c0.1,0,0.1-0.1,0.2-0.1S-74-41-73.9-41c0.5,0.7,0.9,1.5,1.2,2.4v0.1
			c0.1,0.2,0.1,0.4,0.2,0.6h-0.6c0-0.2-0.1-0.3-0.1-0.5v-0.1c-0.2-0.8-0.6-1.5-1.1-2.2C-74.5-40.7-74.5-40.9-74.3-41z M-77.5-35.7
			c-0.2,0-0.3,0-0.5,0c-0.1,0-0.2-0.1-0.3-0.2l0,0l-0.1-0.1c-0.1-0.1-0.1-0.1-0.1-0.2c-0.1-0.1-0.1-0.3-0.1-0.4
			c0-0.2,0.1-0.4,0.2-0.6l0.1-0.1l0,0l0,0l0.1-0.1l0,0c0.1,0,0.1-0.1,0.2-0.1s0.3,0,0.5,0c0,0,0.1,0,0.1,0.1c0,0,0.1,0,0.1,0.1l0,0
			l0,0l0,0l0,0l0,0l0,0c0.3,0.3,0.3,0.7,0.1,1l-0.1,0.1l-0.1,0.1l0,0l0,0l0,0C-77.3-35.8-77.4-35.7-77.5-35.7z M-74.8-41.5
			c-0.1,0.1-0.1,0.1-0.2,0.1s-0.2,0-0.2-0.1l-0.2-0.2c-0.1-0.1-0.1-0.2-0.1-0.3s0.1-0.2,0.2-0.2s0.2,0,0.3,0.1l0.2,0.1
			c0.1,0.1,0.1,0.1,0.1,0.2S-74.7-41.6-74.8-41.5L-74.8-41.5z M-81.3-36.3h-2.4c0,0,0,0,0-0.1c0-0.2,0-0.4,0.1-0.6
			c0-0.1,0-0.1,0-0.2v-0.1h2.3V-36.3z M-80.5-35.1c-0.1,0-0.1,0-0.2,0s-0.1-0.1-0.1-0.1v-2.2v-0.4c0-0.1,0.1-0.2,0.2-0.2h0.1
			l1.5,0.7l0,0v0.1v0.1v0.1c0,0.1-0.1,0.2-0.1,0.3v0.1v0.1c0,0.3,0.1,0.5,0.2,0.7v0.1L-80.5-35.1z M-76.5-35.7L-76.5-35.7
			c0.2-0.3,0.2-0.6,0.2-0.8v-0.1v-0.1v-0.1c0,0,0,0,0-0.1s0-0.1-0.1-0.2v-0.1c0-0.1-0.1-0.1-0.1-0.1s0,0,0-0.1l1.5-0.7
			c0.1,0,0.1,0,0.2,0s0.1,0.1,0.1,0.2v2.6l0,0c0,0.1,0,0.1-0.1,0.1s-0.1,0-0.2,0L-76.5-35.7z M-80.5-30.3l-0.1,0.1v-0.2l0.1-0.3
			l0.1-0.5l-0.8,0.1h-0.3l0.1-0.1l0.2-0.2c1-1,1.6-2.2,1.8-3.6l0.8-0.3c0.1,0.1,0.2,0.1,0.3,0.1h0.1h0.1c-0.2,1.7-0.9,3.4-2.2,4.6
			l0,0L-80.5-30.3z M-74.3-31L-74.3-31l-0.8-0.1l0.1,0.5l0.1,0.3v0.2l-0.1-0.1l-0.2-0.2l0,0c-1.2-1.2-2-2.9-2.2-4.6h0.1h0.1
			c0.1,0,0.2-0.1,0.3-0.1l0.8,0.3c0.2,1.4,0.8,2.6,1.8,3.6l0.2,0.2h0.1C-74-31-74.3-31-74.3-31z"/>
	</g>
	<g id="polkadot-egg-copy" transform="translate(77.451807, 50.289474)">
		<path class="st1" d="M-71.5-38.7C-71.5-38.7-71.5-38.8-71.5-38.7L-71.5-38.7c-0.3-1.1-0.7-2-1.3-2.8l-0.1-0.1
			c-0.4-0.5-0.8-1-1.3-1.4l-0.1-0.1c-1-0.8-2.2-1.2-3.4-1.3c-1.2,0-2.4,0.5-3.4,1.3l-0.1,0.1c-0.5,0.4-0.9,0.9-1.3,1.4l-0.1,0.1
			c-0.6,0.8-1,1.7-1.3,2.7l0,0v0.1c-0.3,1-0.4,2-0.4,3c0,0.8,0.2,1.6,0.5,2.3c0.1,0.1,0.1,0.3,0.2,0.4c0.2,0.4,0.4,0.7,0.7,1.1
			c0.9,1.1,2.1,1.9,3.4,2.3s2.7,0.3,3.9-0.1l0,0c0.6-0.2,1.1-0.5,1.6-0.8c0.6-0.4,1.1-0.9,1.5-1.4c0.3-0.3,0.5-0.7,0.7-1.1v-0.1
			c0.1-0.1,0.1-0.2,0.2-0.3c0.3-0.7,0.5-1.5,0.5-2.4C-71.1-36.8-71.3-37.8-71.5-38.7L-71.5-38.7z M-72.9-36.9
			c-0.5,0-0.9-0.4-0.9-0.9s0.4-0.9,0.9-0.9s0.9,0.4,0.9,0.9C-72-37.3-72.4-36.9-72.9-36.9z M-83.4-37.8c0-0.5,0.4-0.9,0.9-0.9
			s0.9,0.4,0.9,0.9s-0.4,0.9-0.9,0.9S-83.4-37.3-83.4-37.8z M-76.8-42.6c0,0.5-0.4,0.9-0.9,0.9s-0.9-0.4-0.9-0.9
			c0-0.5,0.4-0.9,0.9-0.9C-77.2-43.5-76.8-43.1-76.8-42.6z M-76.8-37.8c0,0.5-0.4,0.9-0.9,0.9s-0.9-0.4-0.9-0.9s0.4-0.9,0.9-0.9
			C-77.2-38.7-76.8-38.3-76.8-37.8z M-80.1-41.1c0.5,0,0.9,0.4,0.9,0.9s-0.4,0.9-0.9,0.9s-0.9-0.4-0.9-0.9
			C-81-40.7-80.6-41.1-80.1-41.1z M-80.1-36.3c0.5,0,0.9,0.4,0.9,0.9s-0.4,0.9-0.9,0.9s-0.9-0.4-0.9-0.9
			C-81-35.9-80.6-36.3-80.1-36.3z M-78.6-33c0-0.5,0.4-0.9,0.9-0.9s0.9,0.4,0.9,0.9s-0.4,0.9-0.9,0.9S-78.6-32.5-78.6-33z
			 M-76.2-35.4c0-0.5,0.4-0.9,0.9-0.9s0.9,0.4,0.9,0.9s-0.4,0.9-0.9,0.9S-76.2-34.9-76.2-35.4z M-75.3-39.3c-0.5,0-0.9-0.4-0.9-0.9
			s0.4-0.9,0.9-0.9s0.9,0.4,0.9,0.9S-74.8-39.3-75.3-39.3z M-82.5-32.3c-0.2-0.3-0.4-0.6-0.6-1c0-0.1-0.1-0.2-0.1-0.2
			c0.2-0.3,0.7-0.4,1-0.3c0.4,0.1,0.6,0.5,0.6,0.9s-0.3,0.7-0.7,0.8C-82.4-32.2-82.5-32.2-82.5-32.3z M-79.3-30.2L-79.3-30.2
			c-0.6-0.1-1.1-0.4-1.5-0.6l-0.1-0.1c0.2-0.4,0.6-0.6,1-0.6c0.4,0.1,0.7,0.5,0.7,0.9C-79.2-30.4-79.3-30.3-79.3-30.2L-79.3-30.2z
			 M-75.9-30.6c0-0.5,0.4-0.9,0.9-0.9c0.3,0,0.6,0.2,0.8,0.4h-0.1c-0.4,0.3-0.9,0.5-1.4,0.7l0,0h-0.1
			C-75.9-30.4-75.9-30.5-75.9-30.6z M-73.8-33c0-0.4,0.2-0.7,0.6-0.9s0.8,0,1,0.3c0,0.1-0.1,0.2-0.1,0.2v0.1l0,0
			c-0.2,0.3-0.4,0.6-0.6,0.9l-0.2,0.2C-73.5-32.2-73.8-32.6-73.8-33z"/>
	</g>
	<g id="chick-copy" transform="translate(103.269076, 25.743421)">
		<path id="Path" class="st1" d="M-72.9-36.1l-0.5,0.6l0,0l-0.2,0.3l0,0l-0.5,0.7l0,0l-0.4,0.5c-0.1,0.1-0.1,0.1-0.2,0.1
			s-0.2,0-0.2-0.1l-0.7-0.9l-1,1c-0.1,0.1-0.1,0.1-0.2,0.1s-0.2,0-0.2-0.1l-1.3-1.5l-1.6,1.8c-0.1,0.1-0.1,0.1-0.2,0.1l0,0
			c-0.1,0-0.2,0-0.2-0.1l-1.4-1.9l-0.1-0.2l-1.3,1.5c-0.1,0.1-0.1,0.1-0.2,0.1s-0.2,0-0.2-0.1l-0.6-0.5c0.6,2.7,2.9,4.6,5.6,4.8
			c0.1,0,0.3,0,0.4,0c2.4-0.1,4.5-1.6,5.4-3.8c0.2-0.6,0.4-1.2,0.4-1.9L-72.9-36.1z"/>
		<path class="st1" d="M-82.5-36.8c0.1,0.1,0.2,0.2,0.4,0.3c0.2,0.1,0.4,0.2,0.5,0.3h0.1l0.3,0.4l1.1,1.4l1.4-1.6h0.8l1.1,1.4l1-1
			c0.1-0.1,0.1-0.1,0.2-0.1s0.2,0,0.2,0.1l0.7,0.9l0,0l0.4-0.5c-0.2-0.4-0.5-0.7-0.8-1c1-0.4,1.7-1.3,1.8-2.4c0-0.1,0-0.1,0-0.2
			c0-0.4-0.1-0.9-0.3-1.3l-0.1-0.1c-0.4-0.7-1-1.3-1.7-1.7c-0.5-0.3-1.1-0.6-1.8-0.7c0.1-0.4-0.1-0.9-0.4-1.2
			c-0.1-0.1-0.3-0.3-0.5-0.3c-0.1,0-0.2,0-0.3,0.1c-0.1,0.1-0.1,0.2-0.1,0.3c0.1,0.3,0,0.6-0.2,0.8c-0.1,0.1-0.2,0.2-0.4,0.2
			c-0.1,0-0.1,0-0.2,0s-0.2,0-0.3,0c-0.7,0.1-1.4,0.4-2,0.8c-0.7,0.4-1.3,1-1.7,1.7l-0.1,0.1c-0.2,0.4-0.3,0.8-0.3,1.3
			c0,0.1,0,0.1,0,0.2C-83.4-37.9-83-37.3-82.5-36.8z M-80.6-39.6c0.2,0,0.5,0.2,0.5,0.4s-0.2,0.4-0.5,0.4s-0.5-0.2-0.5-0.4
			S-80.8-39.6-80.6-39.6z M-79.2-38.1c0.2-0.3,0.5-0.5,0.8-0.5s0.7,0.2,0.8,0.5c0.1,0.1,0.1,0.2,0,0.3l-0.6,0.8
			c-0.1,0.1-0.1,0.1-0.2,0.1s-0.2,0-0.2-0.1l-0.6-0.8C-79.3-37.9-79.3-38-79.2-38.1z M-76.1-38.7c-0.2,0-0.5-0.2-0.5-0.4
			s0.2-0.4,0.5-0.4s0.5,0.2,0.5,0.4S-75.8-38.7-76.1-38.7z"/>
	</g>
	<g id="chick-copy-3" transform="translate(103.269076, 76.032895)">
		<path class="st1" d="M-72.9-36.1l-0.5,0.6l0,0l-0.2,0.3l0,0l-0.5,0.7l0,0l-0.4,0.5c-0.1,0.1-0.1,0.1-0.2,0.1s-0.2,0-0.2-0.1
			l-0.7-0.9l-1,1c-0.1,0.1-0.1,0.1-0.2,0.1s-0.2,0-0.2-0.1l-1.3-1.5l-1.6,1.8c-0.1,0.1-0.1,0.1-0.2,0.1l0,0c-0.1,0-0.2,0-0.2-0.1
			l-1.4-1.9l-0.1-0.2l-1.3,1.5c-0.1,0.1-0.1,0.1-0.2,0.1s-0.2,0-0.2-0.1l-0.6-0.5c0.6,2.7,2.9,4.6,5.6,4.8c0.1,0,0.3,0,0.4,0
			c2.4-0.1,4.5-1.6,5.4-3.8c0.2-0.6,0.4-1.2,0.4-1.9L-72.9-36.1z"/>
		<path class="st1" d="M-82.5-36.8c0.1,0.1,0.2,0.2,0.4,0.3c0.2,0.1,0.4,0.2,0.5,0.3h0.1l0.3,0.4l1.1,1.4l1.4-1.6h0.8l1.1,1.4l1-1
			c0.1-0.1,0.1-0.1,0.2-0.1s0.2,0,0.2,0.1l0.7,0.9l0,0l0.4-0.5c-0.2-0.4-0.5-0.7-0.8-1c1-0.4,1.7-1.3,1.8-2.4c0-0.1,0-0.1,0-0.2
			c0-0.4-0.1-0.9-0.3-1.3l-0.1-0.1c-0.4-0.7-1-1.3-1.7-1.7c-0.5-0.3-1.1-0.6-1.8-0.7c0.1-0.4-0.1-0.9-0.4-1.2
			c-0.1-0.1-0.3-0.3-0.5-0.3c-0.1,0-0.2,0-0.3,0.1c-0.1,0.1-0.1,0.2-0.1,0.3c0.1,0.3,0,0.6-0.2,0.8c-0.1,0.1-0.2,0.2-0.4,0.2
			c-0.1,0-0.1,0-0.2,0s-0.2,0-0.3,0c-0.7,0.1-1.4,0.4-2,0.8c-0.7,0.4-1.3,1-1.7,1.7l-0.1,0.1c-0.2,0.4-0.3,0.8-0.3,1.3
			c0,0.1,0,0.1,0,0.2C-83.4-37.9-83-37.3-82.5-36.8z M-80.6-39.6c0.2,0,0.5,0.2,0.5,0.4s-0.2,0.4-0.5,0.4s-0.5-0.2-0.5-0.4
			S-80.8-39.6-80.6-39.6z M-79.2-38.1c0.2-0.3,0.5-0.5,0.8-0.5s0.7,0.2,0.8,0.5c0.1,0.1,0.1,0.2,0,0.3l-0.6,0.8
			c-0.1,0.1-0.1,0.1-0.2,0.1s-0.2,0-0.2-0.1l-0.6-0.8C-79.3-37.9-79.3-38-79.2-38.1z M-76.1-38.7c-0.2,0-0.5-0.2-0.5-0.4
			s0.2-0.4,0.5-0.4s0.5,0.2,0.5,0.4S-75.8-38.7-76.1-38.7z"/>
	</g>
	<g id="baby-bunny-copy-2" transform="translate(103.269076, 50.289474)">
		<path class="st1" d="M-72.9-34.3l-0.7,0.9l0,0l-0.5,0.7l0,0l-0.4,0.5c-0.1,0.1-0.1,0.1-0.2,0.1s-0.2,0-0.2-0.1l-0.7-0.9l-1,1
			c-0.1,0.1-0.1,0.1-0.2,0.1s-0.2,0-0.2-0.1l-1.3-1.5l-1.6,1.8c-0.1,0.1-0.1,0.1-0.2,0.1l0,0c-0.1,0-0.2,0-0.2-0.1l-1.4-1.9
			l-0.1-0.2l-1.3,1.5c-0.1,0.1-0.1,0.1-0.2,0.1s-0.2,0-0.2-0.1l-0.6-0.5c0.6,2.7,2.9,4.6,5.6,4.8c0.1,0,0.3,0,0.4,0
			c2.4-0.1,4.5-1.6,5.4-3.8c0.2-0.6,0.4-1.2,0.4-1.9L-72.9-34.3z"/>
		<path class="st1" d="M-82.5-35c0.1,0.1,0.2,0.2,0.4,0.3c0.2,0.1,0.3,0.2,0.5,0.3h0.1l0.3,0.4l1.1,1.4l1.4-1.6h0.8l1.1,1.4l1-1
			c0.1-0.1,0.1-0.1,0.2-0.1s0.2,0,0.2,0.1l0.7,0.9l0,0l0.4-0.5c-0.2-0.4-0.5-0.7-0.8-1c1.1-0.4,1.8-1.4,1.9-2.6
			c0-0.4-0.1-0.9-0.3-1.3l-0.1-0.1c-0.4-0.6-0.9-1.2-1.5-1.6c0.1-0.4,0.1-0.8,0.1-1.1c0-1.5-0.5-3.1-1.5-3.1s-1.5,1.6-1.5,3.1
			c0,0.1,0,0.1,0,0.2c-0.2,0-0.4,0-0.6,0c0-0.1,0-0.1,0-0.2c0-1.5-0.5-3.1-1.5-3.1s-1.5,1.6-1.5,3.1c0,0.4,0,0.8,0.1,1.1
			c-0.6,0.4-1.1,1-1.5,1.6l-0.1,0.1C-83.7-37.2-83.5-35.8-82.5-35L-82.5-35z M-81-37.3c0-0.2,0.2-0.4,0.5-0.4s0.5,0.2,0.5,0.4
			s-0.2,0.4-0.5,0.4S-81-37.1-81-37.3z M-76.5-37.3c0-0.2,0.2-0.4,0.5-0.4s0.5,0.2,0.5,0.4s-0.2,0.4-0.5,0.4S-76.5-37.1-76.5-37.3z
			 M-77.8-36.7c0.1,0.1,0.1,0.2,0,0.3l-0.3,0.5c0,0,0,0,0-0.1v0.1l0,0c0,0.2,0.2,0.3,0.3,0.3c0.2,0,0.3-0.2,0.3-0.3
			c0-0.2,0.1-0.3,0.3-0.3c0.2,0,0.3,0.1,0.3,0.3c0,0.4-0.2,0.7-0.5,0.8s-0.7,0.1-1-0.2c-0.3,0.2-0.6,0.3-1,0.2
			c-0.3-0.1-0.5-0.5-0.5-0.8c0-0.2,0.1-0.3,0.3-0.3s0.3,0.1,0.3,0.3s0.1,0.3,0.3,0.3c0.2,0,0.3-0.1,0.3-0.3l0,0V-36c0,0,0,0,0,0.1
			l-0.3-0.5c0-0.1,0-0.2,0-0.3s0.1-0.1,0.3-0.1h0.6C-77.9-36.9-77.8-36.8-77.8-36.7L-77.8-36.7z"/>
	</g>
	<g id="boiled-egg-copy" transform="translate(52.234940, 74.835526)">
		<path class="st1" d="M-74.4-33c0.6-0.6,0.9-1.3,0.9-2.1c0-0.2-0.1-0.3-0.3-0.3H-84c-0.1,0-0.2,0-0.2,0.1c-0.1,0.1-0.1,0.1-0.1,0.2
			c0,1.7,1.3,3,3,3h1l-0.1,0.6l-0.2,0.9c-1.1,0.1-1.9,1-1.9,2.1v0.3h7.2v-0.3c0-1.1-0.8-2-1.9-2.1l-0.2-0.9l-0.1-0.6h1
			C-75.7-32.1-75-32.4-74.4-33z"/>
		<path class="st1" d="M-83.4-36h8.9l0,0c0.2-0.6,0.3-1.2,0.3-1.8c0-0.8-0.1-1.6-0.3-2.3v-0.1c-0.2-0.8-0.6-1.5-1-2.1l-0.1-0.1
			c-0.2-0.3-0.5-0.7-0.8-0.9l-0.1-0.1c-0.7-0.6-1.6-1-2.5-1s-1.8,0.4-2.5,1l-0.1,0.1c-0.3,0.3-0.6,0.6-0.8,0.9l-0.1,0.1
			c-0.5,0.6-0.8,1.4-1,2.1l0,0v0.1c-0.2,0.8-0.3,1.5-0.3,2.3C-83.7-37.1-83.6-36.6-83.4-36L-83.4-36z M-76.4-42
			c0.1,0,0.1-0.1,0.2-0.1S-76.1-42-76-42c0.4,0.6,0.7,1.2,0.9,1.8L-75-40c0.2,0.7,0.3,1.4,0.3,2.2c0,0.2-0.1,0.3-0.3,0.3
			c-0.2,0-0.3-0.1-0.3-0.3c0-0.7-0.1-1.3-0.3-2l-0.1-0.3c-0.2-0.6-0.5-1.1-0.8-1.6C-76.6-41.7-76.5-41.9-76.4-42z M-77.3-42.9
			c0.1-0.1,0.1-0.1,0.2-0.1s0.2,0,0.2,0.1l0.1,0.1c0.1,0.1,0.1,0.1,0.1,0.2c0,0.1,0,0.2-0.1,0.2c-0.1,0.1-0.1,0.1-0.2,0.1
			s-0.1,0-0.2-0.1l-0.1-0.1c-0.1-0.1-0.1-0.1-0.1-0.2C-77.4-42.7-77.3-42.8-77.3-42.9z"/>
	</g>
	<g id="wave-easter-egg-copy-2" transform="translate(155.504016, 25.543860)">
		<path class="st1" d="M-71.5-38.3L-71.5-38.3L-71.5-38.3c0-0.2-0.1-0.3-0.1-0.4v-0.1l0,0c-0.2-0.7-0.5-1.5-0.9-2.1
			c-0.1-0.2-0.3-0.4-0.4-0.6l-0.1-0.1c-0.4-0.5-0.8-1-1.3-1.4l-0.1-0.1c-1-0.8-2.2-1.3-3.4-1.3c-1.2,0-2.4,0.5-3.4,1.3l-0.1,0.1
			c-0.5,0.4-0.9,0.9-1.3,1.4l-0.1,0.1c-0.1,0.2-0.3,0.4-0.4,0.6l0,0c-0.4,0.7-0.7,1.4-0.9,2.1l0,0v0.1c0,0.1,0,0.2-0.1,0.3l0,0v0.1
			c-0.2,0.9-0.3,1.8-0.3,2.6v0.1c0,0.8,0.2,1.6,0.5,2.3c1,2.5,3.5,4.1,6.1,4.1c2.7,0,5.1-1.6,6.1-4.1c0.3-0.7,0.4-1.5,0.5-2.3v-0.1
			C-71.1-36.5-71.2-37.4-71.5-38.3z M-83.3-38.5L-83.3-38.5L-83.3-38.5L-83.3-38.5L-83.3-38.5c0.2-0.7,0.4-1.3,0.8-1.9l0,0
			c0.5,0,1.1-0.3,1.4-0.7c0.3-0.3,0.5-0.5,1-0.5s0.7,0.2,1,0.5c0.3,0.4,0.9,0.7,1.4,0.7c0.6,0,1.1-0.3,1.4-0.7
			c0.3-0.3,0.5-0.5,1-0.5s0.7,0.2,1,0.5c0.3,0.4,0.9,0.7,1.4,0.7l0,0c0.3,0.6,0.6,1.2,0.7,1.8v0.1l0,0l0,0v0.1
			c-0.2,0.2-0.5,0.4-0.8,0.4c-0.4,0-0.8-0.2-1-0.5c-0.3-0.4-0.9-0.7-1.4-0.7c-0.6,0-1.1,0.3-1.4,0.7c-0.3,0.3-0.5,0.5-1,0.5
			s-0.7-0.2-1-0.5c-0.3-0.4-0.9-0.7-1.4-0.7c-0.6,0-1.1,0.3-1.4,0.7c-0.3,0.3-0.5,0.5-1,0.5c-0.3,0-0.6-0.1-0.8-0.4L-83.3-38.5z
			 M-72.2-33.4c-0.2,0.6-0.5,1.1-0.9,1.6c-0.3-0.1-0.6-0.2-0.8-0.5c-0.3-0.4-0.9-0.7-1.4-0.7c-0.6,0-1.1,0.3-1.4,0.7
			c-0.3,0.3-0.5,0.5-1,0.5s-0.7-0.2-1-0.5c-0.3-0.4-0.9-0.7-1.4-0.7c-0.6,0-1.1,0.3-1.4,0.7c-0.2,0.3-0.5,0.4-0.8,0.5
			c-0.4-0.5-0.7-1-0.9-1.6c-0.2-0.4-0.3-0.8-0.4-1.3c0.3,0.3,0.7,0.4,1.1,0.4c0.5,0,1.1-0.3,1.4-0.7c0.3-0.3,0.5-0.5,1-0.5
			s0.7,0.2,1,0.5c0.3,0.4,0.9,0.7,1.4,0.7c0.6,0,1.1-0.3,1.4-0.7c0.3-0.3,0.5-0.5,1-0.5s0.7,0.2,1,0.5c0.3,0.4,0.9,0.7,1.4,0.7
			c0.4,0,0.8-0.1,1.1-0.4C-71.9-34.3-72-33.8-72.2-33.4L-72.2-33.4z"/>
	</g>
	<g id="wave-easter-egg-copy-3" transform="translate(155.504016, 75.434211)">
		<path class="st1" d="M-71.5-38.3L-71.5-38.3L-71.5-38.3c0-0.2-0.1-0.3-0.1-0.4v-0.1l0,0c-0.2-0.7-0.5-1.5-0.9-2.1
			c-0.1-0.2-0.3-0.4-0.4-0.6l-0.1-0.1c-0.4-0.5-0.8-1-1.3-1.4l-0.1-0.1c-1-0.8-2.2-1.3-3.4-1.3c-1.2,0-2.4,0.5-3.4,1.3l-0.1,0.1
			c-0.5,0.4-0.9,0.9-1.3,1.4l-0.1,0.1c-0.1,0.2-0.3,0.4-0.4,0.6l0,0c-0.4,0.7-0.7,1.4-0.9,2.1l0,0v0.1c0,0.1,0,0.2-0.1,0.3l0,0v0.1
			c-0.2,0.9-0.3,1.8-0.3,2.6v0.1c0,0.8,0.2,1.6,0.5,2.3c1,2.5,3.5,4.1,6.1,4.1c2.7,0,5.1-1.6,6.1-4.1c0.3-0.7,0.4-1.5,0.5-2.3v-0.1
			C-71.1-36.5-71.2-37.4-71.5-38.3z M-83.3-38.5L-83.3-38.5L-83.3-38.5L-83.3-38.5L-83.3-38.5c0.2-0.7,0.4-1.3,0.8-1.9l0,0
			c0.5,0,1.1-0.3,1.4-0.7c0.3-0.3,0.5-0.5,1-0.5s0.7,0.2,1,0.5c0.3,0.4,0.9,0.7,1.4,0.7c0.6,0,1.1-0.3,1.4-0.7
			c0.3-0.3,0.5-0.5,1-0.5s0.7,0.2,1,0.5c0.3,0.4,0.9,0.7,1.4,0.7l0,0c0.3,0.6,0.6,1.2,0.7,1.8v0.1l0,0l0,0v0.1
			c-0.2,0.2-0.5,0.4-0.8,0.4c-0.4,0-0.8-0.2-1-0.5c-0.3-0.4-0.9-0.7-1.4-0.7c-0.6,0-1.1,0.3-1.4,0.7c-0.3,0.3-0.5,0.5-1,0.5
			s-0.7-0.2-1-0.5c-0.3-0.4-0.9-0.7-1.4-0.7c-0.6,0-1.1,0.3-1.4,0.7c-0.3,0.3-0.5,0.5-1,0.5c-0.3,0-0.6-0.1-0.8-0.4L-83.3-38.5z
			 M-72.2-33.4c-0.2,0.6-0.5,1.1-0.9,1.6c-0.3-0.1-0.6-0.2-0.8-0.5c-0.3-0.4-0.9-0.7-1.4-0.7c-0.6,0-1.1,0.3-1.4,0.7
			c-0.3,0.3-0.5,0.5-1,0.5s-0.7-0.2-1-0.5c-0.3-0.4-0.9-0.7-1.4-0.7c-0.6,0-1.1,0.3-1.4,0.7c-0.2,0.3-0.5,0.4-0.8,0.5
			c-0.4-0.5-0.7-1-0.9-1.6c-0.2-0.4-0.3-0.8-0.4-1.3c0.3,0.3,0.7,0.4,1.1,0.4c0.5,0,1.1-0.3,1.4-0.7c0.3-0.3,0.5-0.5,1-0.5
			s0.7,0.2,1,0.5c0.3,0.4,0.9,0.7,1.4,0.7c0.6,0,1.1-0.3,1.4-0.7c0.3-0.3,0.5-0.5,1-0.5s0.7,0.2,1,0.5c0.3,0.4,0.9,0.7,1.4,0.7
			c0.4,0,0.8-0.1,1.1-0.4C-71.9-34.3-72-33.8-72.2-33.4L-72.2-33.4z"/>
	</g>
	<g id="chick-copy-5" transform="translate(181.321285, 50.888158)">
		<path class="st1" d="M-72.9-36.1l-0.5,0.6l0,0l-0.2,0.3l0,0l-0.5,0.7l0,0l-0.4,0.5c-0.1,0.1-0.1,0.1-0.2,0.1s-0.2,0-0.2-0.1
			l-0.7-0.9l-1,1c-0.1,0.1-0.1,0.1-0.2,0.1c-0.1,0-0.2,0-0.2-0.1l-1.3-1.5l-1.6,1.8c-0.1,0.1-0.1,0.1-0.2,0.1l0,0
			c-0.1,0-0.2,0-0.2-0.1l-1.4-1.9l-0.1-0.2l-1.3,1.5c-0.1,0.1-0.1,0.1-0.2,0.1s-0.2,0-0.2-0.1l-0.6-0.5c0.6,2.7,2.9,4.6,5.6,4.8
			c0.1,0,0.3,0,0.4,0c2.4-0.1,4.5-1.6,5.4-3.8c0.2-0.6,0.4-1.2,0.4-1.9L-72.9-36.1z"/>
		<path class="st1" d="M-82.5-36.8c0.1,0.1,0.2,0.2,0.4,0.3c0.2,0.1,0.4,0.2,0.5,0.3h0.1l0.3,0.4l1.1,1.4l1.4-1.6h0.8l1.1,1.4l1-1
			c0.1-0.1,0.1-0.1,0.2-0.1s0.2,0,0.2,0.1l0.7,0.9l0,0l0.4-0.5c-0.2-0.4-0.5-0.7-0.8-1c1-0.4,1.7-1.3,1.8-2.4c0-0.1,0-0.1,0-0.2
			c0-0.4-0.1-0.9-0.3-1.3l-0.1-0.1c-0.4-0.7-1-1.3-1.7-1.7c-0.5-0.3-1.1-0.6-1.8-0.7c0.1-0.4-0.1-0.9-0.4-1.2
			c-0.1-0.1-0.3-0.3-0.5-0.3c-0.1,0-0.2,0-0.3,0.1s-0.1,0.2-0.1,0.3c0.1,0.3,0,0.6-0.2,0.8c-0.1,0.1-0.2,0.2-0.4,0.2
			c-0.1,0-0.1,0-0.2,0s-0.2,0-0.3,0c-0.7,0.1-1.4,0.4-2,0.8c-0.7,0.4-1.3,1-1.7,1.7l-0.1,0.1c-0.2,0.4-0.3,0.8-0.3,1.3
			c0,0.1,0,0.1,0,0.2C-83.4-37.9-83-37.3-82.5-36.8z M-80.6-39.6c0.2,0,0.5,0.2,0.5,0.4s-0.2,0.4-0.5,0.4s-0.5-0.2-0.5-0.4
			S-80.8-39.6-80.6-39.6z M-79.2-38.1c0.2-0.3,0.5-0.5,0.8-0.5s0.7,0.2,0.8,0.5c0.1,0.1,0.1,0.2,0,0.3l-0.6,0.8
			c-0.1,0.1-0.1,0.1-0.2,0.1s-0.2,0-0.2-0.1l-0.6-0.8C-79.3-37.9-79.3-38-79.2-38.1z M-76.1-38.7c-0.2,0-0.5-0.2-0.5-0.4
			s0.2-0.4,0.5-0.4c0.2,0,0.5,0.2,0.5,0.4S-75.8-38.7-76.1-38.7z"/>
	</g>
	<g id="baby-bunny-copy-7" transform="translate(181.321285, 74.835526)">
		<path class="st1" d="M-72.9-34.3l-0.7,0.9l0,0l-0.5,0.7l0,0l-0.4,0.5c-0.1,0.1-0.1,0.1-0.2,0.1s-0.2,0-0.2-0.1l-0.7-0.9l-1,1
			c-0.1,0.1-0.1,0.1-0.2,0.1c-0.1,0-0.2,0-0.2-0.1l-1.3-1.5l-1.6,1.8c-0.1,0.1-0.1,0.1-0.2,0.1l0,0c-0.1,0-0.2,0-0.2-0.1l-1.4-1.9
			l-0.1-0.2l-1.3,1.5c-0.1,0.1-0.1,0.1-0.2,0.1s-0.2,0-0.2-0.1l-0.6-0.5c0.6,2.7,2.9,4.6,5.6,4.8c0.1,0,0.3,0,0.4,0
			c2.4-0.1,4.5-1.6,5.4-3.8c0.2-0.6,0.4-1.2,0.4-1.9L-72.9-34.3z"/>
		<path class="st1" d="M-82.5-35c0.1,0.1,0.2,0.2,0.4,0.3c0.2,0.1,0.3,0.2,0.5,0.3h0.1l0.3,0.4l1.1,1.4l1.4-1.6h0.8l1.1,1.4l1-1
			c0.1-0.1,0.1-0.1,0.2-0.1s0.2,0,0.2,0.1l0.7,0.9l0,0l0.4-0.5c-0.2-0.4-0.5-0.7-0.8-1c1.1-0.4,1.8-1.4,1.9-2.6
			c0-0.4-0.1-0.9-0.3-1.3l-0.1-0.1c-0.4-0.6-0.9-1.2-1.5-1.6c0.1-0.4,0.1-0.8,0.1-1.1c0-1.5-0.5-3.1-1.5-3.1c-1,0-1.5,1.6-1.5,3.1
			c0,0.1,0,0.1,0,0.2c-0.2,0-0.4,0-0.6,0c0-0.1,0-0.1,0-0.2c0-1.5-0.5-3.1-1.5-3.1s-1.5,1.6-1.5,3.1c0,0.4,0,0.8,0.1,1.1
			c-0.6,0.4-1.1,1-1.5,1.6l-0.1,0.1C-83.7-37.2-83.5-35.8-82.5-35L-82.5-35z M-81-37.3c0-0.2,0.2-0.4,0.5-0.4s0.5,0.2,0.5,0.4
			s-0.2,0.4-0.5,0.4S-81-37.1-81-37.3z M-76.5-37.3c0-0.2,0.2-0.4,0.5-0.4c0.2,0,0.5,0.2,0.5,0.4s-0.2,0.4-0.5,0.4
			C-76.3-36.9-76.5-37.1-76.5-37.3z M-77.8-36.7c0.1,0.1,0.1,0.2,0,0.3l-0.3,0.5c0,0,0,0,0-0.1v0.1l0,0c0,0.2,0.2,0.3,0.3,0.3
			s0.3-0.2,0.3-0.3c0-0.2,0.1-0.3,0.3-0.3s0.3,0.1,0.3,0.3c0,0.4-0.2,0.7-0.5,0.8s-0.7,0.1-1-0.2c-0.3,0.2-0.6,0.3-1,0.2
			c-0.3-0.1-0.5-0.5-0.5-0.8c0-0.2,0.1-0.3,0.3-0.3c0.2,0,0.3,0.1,0.3,0.3s0.1,0.3,0.3,0.3c0.2,0,0.3-0.1,0.3-0.3l0,0V-36
			c0,0,0,0,0,0.1l-0.3-0.5c0-0.1,0-0.2,0-0.3c0.1-0.1,0.1-0.1,0.3-0.1h0.6C-77.9-36.9-77.8-36.8-77.8-36.7L-77.8-36.7z"/>
	</g>
	<g id="egg-copy-3" transform="translate(155.504016, 51.087719)">
		<path class="st1" d="M-71.9-39L-71.9-39L-71.9-39c-0.3-1.1-0.8-2-1.4-2.8l0,0c-0.4-0.5-0.8-1-1.3-1.4l0,0
			c-0.9-0.8-2.1-1.2-3.4-1.3c-1.2,0-2.4,0.5-3.4,1.3l0,0c-0.5,0.4-0.9,0.8-1.3,1.3l0,0c-0.6,0.8-1.1,1.7-1.3,2.7l0,0v0.1
			c-0.3,0.9-0.4,1.9-0.4,2.9c0,0.8,0.2,1.5,0.5,2.2c0.1,0.1,0.1,0.3,0.2,0.4c0.2,0.4,0.4,0.7,0.7,1c0.8,1.1,2,1.8,3.3,2.2
			c1.3,0.4,2.6,0.3,3.9-0.1l0,0c0.6-0.2,1.1-0.4,1.6-0.8c0.6-0.4,1.1-0.8,1.5-1.4c0.3-0.3,0.5-0.7,0.7-1l0,0
			c0.1-0.1,0.1-0.3,0.2-0.4c0.3-0.7,0.4-1.5,0.4-2.2C-71.4-37-71.6-38-71.9-39z M-74.9-41.8c-0.1,0.1-0.1,0.1-0.2,0.1
			s-0.2,0-0.2-0.1l-0.2-0.2c-0.1-0.1-0.1-0.2-0.1-0.3s0.1-0.2,0.2-0.2s0.2,0,0.3,0.1l0.2,0.1c0.1,0.1,0.1,0.1,0.1,0.2
			C-74.8-42-74.8-41.9-74.9-41.8z M-72.7-34.2c0,0.1-0.2,0.2-0.3,0.2h-0.1c-0.2-0.1-0.2-0.2-0.2-0.4c0.2-0.5,0.3-1.1,0.3-1.7
			c0-0.8-0.1-1.7-0.4-2.5v-0.1c-0.2-0.8-0.6-1.5-1.1-2.2c-0.1-0.1-0.1-0.2-0.1-0.3s0.1-0.2,0.3-0.2c0.1,0,0.2,0,0.3,0.1
			c0.5,0.7,0.9,1.5,1.2,2.4v0.1c0.3,0.9,0.4,1.7,0.4,2.6C-72.4-35.4-72.5-34.8-72.7-34.2L-72.7-34.2z"/>
	</g>
	<g id="boiled-egg-copy-3" transform="translate(207.738956, 74.835526)">
		<path class="st1" d="M-74.4-33c0.6-0.6,0.9-1.3,0.9-2.1c0-0.2-0.1-0.3-0.3-0.3H-84c-0.1,0-0.2,0-0.2,0.1c-0.1,0.1-0.1,0.1-0.1,0.2
			c0,1.7,1.3,3,3,3h1l-0.1,0.6l-0.2,0.9c-1.1,0.1-1.9,1-1.9,2.1v0.3h7.2v-0.3c0-1.1-0.8-2-1.9-2.1l-0.2-0.9l-0.1-0.6h1
			C-75.7-32.1-75-32.4-74.4-33z"/>
		<path class="st1" d="M-83.4-36h8.9l0,0c0.2-0.6,0.3-1.2,0.3-1.8c0-0.8-0.1-1.6-0.3-2.3v-0.1c-0.2-0.8-0.6-1.5-1-2.1l-0.1-0.1
			c-0.2-0.3-0.5-0.7-0.8-0.9l-0.1-0.1c-0.7-0.6-1.6-1-2.5-1s-1.8,0.4-2.5,1l-0.1,0.1c-0.3,0.3-0.6,0.6-0.8,0.9l-0.1,0.1
			c-0.5,0.6-0.8,1.4-1,2.1l0,0v0.1c-0.2,0.8-0.3,1.5-0.3,2.3C-83.7-37.1-83.6-36.6-83.4-36L-83.4-36z M-76.4-42
			c0.1,0,0.1-0.1,0.2-0.1S-76.1-42-76-42c0.4,0.6,0.7,1.2,0.9,1.8L-75-40c0.2,0.7,0.3,1.4,0.3,2.2c0,0.2-0.1,0.3-0.3,0.3
			s-0.3-0.1-0.3-0.3c0-0.7-0.1-1.3-0.3-2l-0.1-0.3c-0.2-0.6-0.5-1.1-0.8-1.6C-76.6-41.7-76.5-41.9-76.4-42z M-77.3-42.9
			c0.1-0.1,0.1-0.1,0.2-0.1s0.2,0,0.2,0.1l0.1,0.1c0.1,0.1,0.1,0.1,0.1,0.2c0,0.1,0,0.2-0.1,0.2c-0.1,0.1-0.1,0.1-0.2,0.1
			s-0.1,0-0.2-0.1l-0.1-0.1c-0.1-0.1-0.1-0.1-0.1-0.2C-77.4-42.7-77.3-42.8-77.3-42.9z"/>
	</g>
</g>
<g id="logo_ccb_ln" transform="translate(48.272280, 111.000000)">
	<path class="st2" d="M36.5-64.2L36.5-64.2l3.8-0.1c0,0,0.1-0.1,0.2-0.2c0.2-0.3,0.3-0.4,0.4-0.4c0.2,0.1,0.5,0.2,0.8,0.5
		c0.1,0.1,0.2,0.2,0.1,0.2c0,0-0.1,0.1-0.3,0.1h-0.9c-0.3,0-0.4,0.1-0.4,0.4v2.9c0.1,0.5-0.3,0.8-1.1,0.8c-0.3,0-0.5,0-0.5-0.2v-0.1
		c-0.1-0.2-0.3-0.4-0.7-0.4c-0.1,0-0.1,0-0.1,0s0.1,0,0.2,0c0.7,0,1.1-0.2,1.1-0.4V-64h-2.4C36.6-64.2,36.5-64.2,36.5-64.2
		L36.5-64.2z M36.5-64.8c0.1-0.1,0.2-0.1,0.3-0.1s0.1,0,0.1,0c0-0.1-0.1-0.2-0.3-0.3L36.5-64.8L36.5-64.8z M36.5-66.3v-0.2
		C36.5-66.4,36.6-66.3,36.5-66.3L36.5-66.3L36.5-66.3z M40.2-66.7c0.1,0,0.3,0.1,0.7,0.4c0,0.1,0.1,0.1,0.1,0.1
		c0.1,0.1,0.2,0.2,0.2,0.2s-0.1,0.1-0.3,0.1h-3.7c-0.1,0-0.2,0-0.2-0.1s0-0.1,0.1-0.1h2.6c0,0,0,0,0.1-0.1
		C40-66.5,40.2-66.7,40.2-66.7z M36.5-66.5v0.2h-0.1c-0.2,0-0.3,0.1-0.4,0.1c-0.1,0.1-0.2,0.1-0.4,0.2c-0.6,0.4-1.2,0.7-1.7,1
		s-0.6,0.2-0.2-0.1l0.1-0.1c0.5-0.5,1-1,1.5-1.6c0.1-0.1,0.1-0.1,0.2-0.2c0.1-0.1,0.2-0.1,0.5,0.1C36.2-66.7,36.4-66.6,36.5-66.5
		L36.5-66.5z M36.5-65.3c-0.1-0.1-0.2-0.1-0.3-0.1c-0.2-0.2-0.4-0.1-0.6,0.1c-0.6,0.9-1.2,1.6-1.7,2.1c-0.3,0.3-0.4,0.4-0.5,0.5
		c0,0.1,0.1,0,0.3-0.1c0.3-0.2,0.7-0.4,1.2-0.7v3.1c0,0.1,0.1,0.2,0.4,0.1c0.4,0,0.5-0.1,0.5-0.3v-3.3c0,0,0-0.1,0.1-0.1
		c0.1-0.1,0.1-0.1-0.1-0.2c0.2-0.2,0.4-0.4,0.5-0.5c0-0.1,0.1-0.1,0.2-0.1L36.5-65.3L36.5-65.3z M36.5-64.3L36.5-64.3
		C36.4-64.2,36.4-64.3,36.5-64.3C36.3-64.3,36.4-64.3,36.5-64.3L36.5-64.3L36.5-64.3z M30.3-60.5v-3.4c0.5,0.2,0.8,0.4,1,0.7
		l-0.1,0.1c-0.1,0-0.2,0.1-0.2,0.3c-0.1,1.1-0.2,1.8-0.4,2.1C30.5-60.6,30.4-60.6,30.3-60.5L30.3-60.5z M30.3-64.4
		c0.3,0.4,0.7,0.7,1.1,1s0.7,0.4,0.8,0.1c0.1-0.1,0.2-0.2,0.2-0.3c0.1-0.1,0.3-0.2,0.5-0.3c0.1,0,0.1,0,0.1-0.1c0,0-0.1-0.1-0.3-0.1
		c-1.1-0.3-2-0.7-2.4-1.3L30.3-64.4L30.3-64.4z M30.3-65.5v1c-0.5-0.6-0.8-1.4-1-2.4c0-0.1,0.1-0.1,0.5,0s0.4,0.2,0.1,0.3
		c-0.1,0.1-0.1,0.1-0.1,0.1C29.9-66.1,30.1-65.7,30.3-65.5L30.3-65.5z M30.3-63.9v3.4c-0.2,0.2-0.6,0.3-1,0.3c-0.3,0-0.4,0-0.5-0.2
		c0-0.1,0-0.2-0.1-0.3s-0.3-0.2-0.6-0.3H28c0,0,0.1,0,0.3,0c0.7,0,1.1-0.1,1.2-0.3c0.1-0.4,0.2-1.1,0.3-2.1H29
		c-0.3,0-0.4,0.1-0.5,0.4c-0.2,0.9-0.5,1.6-0.9,1.9c-0.2,0.2-0.5,0.3-0.8,0.5v-0.6c0.3-0.4,0.5-1.1,0.6-2.1h-0.6v-0.1h2.9
		c0,0,0.1,0,0.2-0.1c0.1-0.2,0.2-0.3,0.3-0.3C30.2-64,30.3-64,30.3-63.9L30.3-63.9z M26.9-64.3v-0.9c0,0,0,0,0-0.1
		c0.3-0.5,0.5-0.8,0.6-1.1c0-0.1,0.1-0.1,0.1-0.1c0.7,0.1,1.2,0.3,1.3,0.6c0,0-0.1,0-0.2,0c-0.2,0-0.3,0.1-0.4,0.3
		C27.9-65.1,27.4-64.6,26.9-64.3z M26.9-65.2v0.9c-0.6,0.4-1.3,0.8-2.1,1c0,0,0-0.1,0.2-0.1C25.8-63.8,26.4-64.5,26.9-65.2
		L26.9-65.2z M26.9-63.6h-0.6c-0.1,0-0.1,0.1,0.2,0.1L26.9-63.6L26.9-63.6L26.9-63.6z M26.9-61.4v0.6c-0.5,0.3-1.2,0.5-2,0.6
		c0,0,0.1-0.1,0.2-0.1C25.9-60.5,26.5-60.9,26.9-61.4C26.8-61.3,26.8-61.3,26.9-61.4L26.9-61.4z M22.4-60.1V-64
		c0.4,0.1,0.7,0.3,0.9,0.6c0,0.1-0.1,0.1-0.2,0.2C23-63.1,23-63.1,23-63.1v2.5C23-60.3,22.8-60.2,22.4-60.1L22.4-60.1z M22.4-64.9
		v-0.5c0.2,0.1,0.3,0.2,0.3,0.3C22.7-65.1,22.6-65,22.4-64.9C22.5-64.9,22.5-64.9,22.4-64.9L22.4-64.9z M22.4-65.7
		c0.3,0.2,0.5,0.4,0.7,0.7c0.1,0.1,0.1,0.2,0.2,0.2c0.2,0.2,0.5,0.1,0.7-0.1s0.3-0.4,0.2-0.7c-0.2-0.4-0.8-0.6-1.7-0.7L22.4-65.7
		L22.4-65.7z M22.4-66.2v0.5c-0.2-0.1-0.4-0.3-0.6-0.4c-0.3-0.1-0.3-0.2,0.1-0.2H22C22.1-66.2,22.3-66.2,22.4-66.2L22.4-66.2z
		 M22.4-65.3c-0.1-0.1-0.3-0.2-0.6-0.3c0,0,0,0-0.1,0c-0.2-0.1-0.3,0-0.5,0.2c-0.1,0.1-0.3,0.2-0.5,0.4c-0.1,0.1-0.2,0.1-0.2,0.2
		v-1.6c0-0.1,0-0.1,0.1-0.2c0.1,0,0.1-0.1,0.1-0.1c0-0.1-0.1-0.1-0.4-0.1v3c0.4-0.2,1-0.5,1.7-0.8c0.1-0.1,0.2-0.1,0.3-0.1v-0.6
		H22.4z M22.4-64v3.9c-0.1,0-0.2,0-0.3,0c-0.3,0-0.4-0.1-0.4-0.2v-0.4h-1.4v-0.1h1.4v-0.9h-1.4v-0.1h1.4v-0.7h-1.4v-0.1h1.4v-0.8
		h-1.4v-0.1h1.3c0,0,0.1-0.1,0.2-0.2c0.1-0.1,0.2-0.2,0.2-0.2C22.2-64.1,22.3-64.1,22.4-64z M20.4-66.9v3c-0.2,0.1-0.3,0.1-0.4,0.2
		h0.4v0.1h-0.6L19-63.3v0.6h1.4v0.1H19v0.7h1.4v0.1H19v0.9h1.4v0.1H19v0.4c0,0.2-0.3,0.3-0.9,0.4c-0.2,0.1-0.3,0-0.2-0.3V-63
		c-0.1,0-0.2,0.1-0.4,0.1v-0.3c0.1,0,0.2-0.1,0.4-0.1c0,0,0,0,0-0.1c0-0.3,0-0.4,0.1-0.5s0.3,0,0.6,0.1c0.2,0,0.2,0.1,0.2,0.1
		c0.6-0.3,1.1-0.6,1.6-0.9c-0.2,0.1-0.4,0.1-0.6,0.1c-0.3,0-0.4-0.1-0.3-0.3v-1.8c0-0.2,0.1-0.3,0.3-0.3C20-67,20.2-66.9,20.4-66.9
		L20.4-66.9z M17.5-64.9c0.2-0.1,0.3-0.2,0.5-0.3c0.2-0.1,0.3-0.1,0.3-0.1c0.2-0.1,0.3-0.2,0.5-0.3c0.1,0,0.2-0.1,0.2-0.1
		c0-0.1-0.3-0.3-1-0.4c-0.2-0.1-0.4,0-0.5,0.1c0,0.1-0.1,0.1-0.1,0.1L17.5-64.9L17.5-64.9z M17.5-65.9v1c-0.3,0.2-0.6,0.3-0.9,0.4
		c-0.7,0.4-0.9,0.4-0.4-0.1c0-0.1,0.1-0.1,0.1-0.1C16.8-65,17.2-65.4,17.5-65.9L17.5-65.9z M17.5-63.3v0.3c-1,0.2-1.5,0.3-1.6,0.3
		c0,0,0.2-0.1,0.6-0.3C16.9-63.1,17.2-63.2,17.5-63.3L17.5-63.3z M11.5-60.1v-3.8h2.1c0.1,0,0.2-0.1,0.3-0.3
		c0.2-0.3,0.4-0.4,0.4-0.4c0.1,0,0.4,0.2,0.8,0.6c0.1,0.1,0.1,0.1,0,0.2c0,0,0,0.1-0.2,0.1h-2.5c-0.2,0-0.4,0.1-0.3,0.3v2.5
		C12.3-60.5,12.1-60.1,11.5-60.1L11.5-60.1z M11.5-65.5H14c0,0.1,0,0.2-0.1,0.3c-0.1,0.2-0.1,0.4-0.2,0.5c0,0.1,0,0.1,0,0.1
		s0.1,0,0.2-0.1l0,0c0.3-0.2,0.7-0.4,1.1-0.4c0.1,0,0.2,0,0.4,0s0.2,0,0.3-0.1c-0.1-0.3-0.5-0.6-1.3-1c-0.1,0-0.2,0.1-0.4,0.3
		c-0.1,0.1-0.2,0.2-0.2,0.2H12c0.4-0.4,0.4-0.7,0-1c-0.1-0.1-0.2-0.1-0.4-0.1v1.3C11.6-65.5,11.5-65.5,11.5-65.5z M5.5-66.9
		c0.8,0.3,1.3,0.6,1.4,1c0,0.1-0.2,0.1-0.4,0.1c-0.7,0-1.3,0.1-1.8,0.5C5-65.2,5-65.1,4.9-65c-0.1,0-0.1,0-0.1,0.1v2.7
		c0.1,0.3-0.1,0.5-0.6,0.6v-3.7c0.1,0,0.2,0,0.3,0.1c0.3-0.4,0.5-0.7,0.6-1H4.2v-0.1H5c0,0,0-0.1,0.1-0.1
		C5.3-66.8,5.4-66.9,5.5-66.9L5.5-66.9z M11.5-66.7v1.3H9c0.1,0.4,0.1,0.8-0.2,1c-0.5,0.3-0.9,0.3-1.2,0c-0.1-0.2-0.1-0.4,0.2-0.6
		c0.5-0.2,0.7-0.4,0.7-0.8c0-0.1,0-0.1,0-0.1c0.1,0,0.2,0.1,0.3,0.4h2.4c-0.3-0.1-0.4-0.3-0.4-0.6c0-0.1-0.2-0.3-0.4-0.4
		c-0.1-0.1-0.1-0.1-0.1-0.1c0.1-0.1,0.4-0.1,0.8,0C11.3-66.8,11.4-66.8,11.5-66.7L11.5-66.7z M11.5-63.9v3.8c-0.2,0-0.4,0.1-0.6,0
		c-0.2,0-0.2-0.1-0.3-0.2c-0.1-0.3-0.4-0.5-0.8-0.6c-0.1,0-0.2,0-0.2-0.1c0,0,0.1,0,0.2,0c1,0,1.4-0.1,1.2-0.4v-2.4H8
		c-0.2-0.1-0.2-0.1-0.1-0.1H11.5L11.5-63.9z M4.2-60.6v-0.8c0.8,0,1.6-0.1,2.4-0.1c0.4,0,0.6-0.1,0.6,0c0,0,0,0-0.1,0.1
		c-0.2,0.1-0.3,0.3-0.5,0.4c-0.1,0.1-0.1,0.1-0.1,0.2c0,0.1-0.2,0.2-0.7,0.2C5.2-60.6,4.7-60.6,4.2-60.6z M4.2-61.8
		c-0.1,0-0.2,0-0.3,0.1c-0.3,0.1-0.6,0-0.6-0.2C3.3-62,3.2-62,3.2-62c-0.1-0.1-0.4-0.3-0.8-0.4c-0.1,0-0.2-0.1-0.2-0.1s0.1,0,0.2,0
		c0.7,0,1.1-0.2,1.1-0.4v-2.3c-0.1-0.2,0.1-0.2,0.6-0.1L4.2-61.8L4.2-61.8z M4.2-66.4H1.8c-0.1,0-0.2,0-0.3-0.1c0,0,0-0.1,0.1-0.1
		h2.6V-66.4L4.2-66.4z M4.2-61.3c-0.6,0-1.2,0-1.7,0C1.9-61.4,1.4-61.6,1-62v-1.9C1-64,1-64,1.1-64.1s0.2-0.1,0.1-0.1
		c-0.3-0.3-0.7-0.5-1.1-0.5c-0.1,0-0.2,0.1-0.3,0.3c-0.1,0.1-0.1,0.1-0.1,0.1h-0.9c-0.1,0-0.1,0-0.1,0.1s0.1,0.1,0.2,0.1h1v2.3
		c-0.2,0.1-0.4,0.2-0.7,0.4c-0.2,0.1-0.3,0.2-0.4,0.2c0.1,0.3,0.3,0.5,0.8,0.7c0,0,0.1-0.1,0.3-0.3c0.3-0.4,0.5-0.6,0.7-0.6
		s0.4,0.1,0.6,0.3c0.4,0.3,0.7,0.4,1,0.5c0.4,0.1,1.1,0.1,2,0.2V-61.3L4.2-61.3z M-0.6-66.8c1,0,1.6,0.2,1.8,0.6
		c0,0.4-0.1,0.7-0.6,0.8C0.2-65.4,0-65.6,0-66C0-66.3-0.1-66.6-0.6-66.8L-0.6-66.8z"/>
	<rect x="-1.3" y="-70.2" class="st2" width="94" height="1"/>
	<g>
		<path class="st3" d="M-10-82.4l-6.2-6.2c-1.3-1.3-2.8-1.2-3.4-1.1c-4.9,0.8-8.6,5.1-8.6,10.2c0,5.7,4.6,10.3,10.3,10.3
			c5.5,0,10-4.5,10.2-10c0-0.1,0-0.3-0.1-0.4c-0.2-0.1-0.5-0.1-0.5-0.1h-4c0,0-0.4,0-0.5,0.1c-0.1,0-0.2,0.1-0.2,0.1l-4.8,4.9
			c-0.1,0.1-0.2,0.1-0.3,0l-4.9-4.9c-0.1-0.1-0.1-0.2,0-0.3l4.9-4.9c0.1-0.1,0.2-0.1,0.3,0l4.5,4.5c0,0,0.2,0.2,0.4,0.3
			c0.2,0.1,0.5-0.2,0.5-0.2L-10-82.4z"/>
		<path class="st3" d="M-7.7-85.7L-11-89c-3.7-3.6-8-1.1-8-1.1s1.8-1,4.1,1.5l5.5,5.6l1.6-1.6c0,0,0.2-0.2,0.2-0.5
			C-7.5-85.4-7.7-85.7-7.7-85.7z"/>
	</g>
	<path class="st4" d="M65.6-70.8h0.8c0.4,0,1.4-0.4,1.4-1.4c0-0.9-0.8-1.1-0.9-1.2c0.4-0.2,0.7-0.6,0.7-1.1c0-1-1-1.3-1.4-1.3h-0.5
		v0.6c1,0,1.2,0.5,1.2,0.8s-0.2,0.7-1,0.7h-0.2v0.6h0.2c0.6,0,1.3,0.1,1.3,0.8c0,0.4-0.2,0.9-0.9,0.9h-0.5L65.6-70.8L65.6-70.8z
		 M63.7-70.8h1.9v-0.6h-1.2v-1.7h1.2v-0.6h-1.2v-1.6h1.2l0,0v-0.5h-1.9C63.7-75.8,63.7-70.8,63.7-70.8z"/>
	<path class="st4" d="M71.2-74c0-0.4-0.4-0.6-1-0.7c-0.2-0.1-0.4-0.1-0.7-0.1c0,0,0,0-0.1,0v0.5c0.4,0,1,0.1,1.1,0.4v0.4
		c0,0.2-0.3,0.3-0.4,0.3c-0.2,0.1-0.4,0.1-0.7,0.1v0.5c0.4-0.1,0.7-0.1,1.1-0.2v0.8c0,0.1-0.3,0.6-1.1,0.7v0.5
		c0.4-0.1,0.8-0.3,1.1-0.5c0,0.3,0.3,0.5,0.6,0.5c0.2,0,0.4,0,0.5-0.1v-0.5h-0.1c-0.2,0-0.3-0.1-0.3-0.2V-74L71.2-74z M69.5-74.8
		c-0.4,0-0.6,0.1-0.8,0.2c-0.4,0.2-0.6,0.5-0.7,0.7v0.3h0.6c0-0.2,0.1-0.7,0.9-0.7c0,0,0,0,0.1,0L69.5-74.8L69.5-74.8z M69.5-73.1
		c-0.2,0-0.5,0.1-0.9,0.2s-0.8,0.4-0.9,1l0,0v0.1c0,0.6,0.6,1,1.5,1c0.1,0,0.2,0,0.3,0v-0.5c-0.1,0-0.2,0-0.3,0
		c-0.4,0-0.8-0.2-0.7-0.6c0-0.3,0.3-0.5,0.4-0.5c0.2-0.1,0.4-0.1,0.6-0.1V-73.1L69.5-73.1z"/>
	<path class="st4" d="M72.7-74.7v3.9h0.6v-2.1c0-1.1,0.5-1.4,1-1.4c0.4,0,0.8,0.3,0.8,0.7v2.7h0.6v-3c-0.1-0.6-0.4-0.8-0.6-0.9
		c-0.1,0-0.3,0-0.6,0s-0.6,0-0.8,0.2c-0.1,0.1-0.3,0.2-0.4,0.4l0,0v-0.5L72.7-74.7L72.7-74.7z"/>
	<polygon class="st4" points="75.7,-75.8 75.7,-70.8 76.5,-70.8 76.5,-72.2 77.2,-72.7 78.8,-70.8 79.7,-70.8 77.8,-73.2 
		79.5,-74.4 78.5,-74.4 76.5,-72.9 76.5,-75.8 	"/>
	<path class="st4" d="M3.6-74.2c-0.3-1-1.1-1.6-2.4-1.6c-0.7,0-1.4,0.3-1.6,0.5c-0.7,0.5-0.9,1.3-0.9,2s0.2,1.5,0.9,2
		c0.2,0.2,0.9,0.5,1.6,0.5c1.3,0,2.2-0.8,2.5-1.9H3c-0.3,0.9-0.8,1.3-1.7,1.3c-0.5,0-0.9-0.1-1.2-0.4s-0.6-0.9-0.6-1.5
		s0.2-1.2,0.6-1.5c0.3-0.3,0.8-0.4,1.2-0.4c0.8,0,1.3,0.4,1.6,1H3.6L3.6-74.2z"/>
	<path class="st4" d="M4.7-70.8h0.6v-2.4c0-0.3,0.1-0.4,0.2-0.5C5.8-73.8,6-74,6.2-74s0.4,0,0.6,0.1c0.1,0.1,0.3,0.2,0.3,0.6v2.5
		h0.6v-2.7c0-0.1-0.1-0.7-0.6-0.8c-0.2-0.1-0.4-0.1-0.6-0.1s-0.4,0-0.5,0.1c-0.3,0.1-0.5,0.3-0.7,0.4v-1.9H4.7V-70.8z"/>
	<path class="st4" d="M9.7-74.4h-1v3.6h1V-74.4L9.7-74.4z M9.7-75.8h-1v0.7h1V-75.8z"/>
	<path class="st4" d="M9.7-74.7v3.9h0.6v-2.1c0-1.1,0.5-1.4,1-1.4c0.4,0,0.8,0.3,0.8,0.7v2.7h0.6v-3c-0.1-0.6-0.4-0.8-0.6-0.9
		c-0.1,0-0.3,0-0.6,0s-0.6,0-0.8,0.2c-0.1,0.1-0.3,0.2-0.4,0.4l0,0v-0.5L9.7-74.7L9.7-74.7z"/>
	<path class="st4" d="M17.3-74c0-0.4-0.5-0.6-1-0.7c-0.3-0.1-0.5-0.1-0.8-0.1c0,0,0,0-0.1,0v0.5c0.4,0,1,0.1,1.1,0.4v0.4
		c0,0.2-0.3,0.3-0.3,0.3c-0.2,0-0.4,0-0.7,0.1v0.5c0.4-0.1,0.7-0.1,1.1-0.2v0.8c0,0.1-0.3,0.6-1.1,0.7v0.5c0.4-0.1,0.8-0.3,1.1-0.5
		c0,0.3,0.3,0.5,0.6,0.5c0.2,0,0.4,0,0.5-0.1v-0.5h-0.1c-0.2,0-0.3-0.1-0.3-0.2V-74L17.3-74z M15.5-74.8c-0.4,0-0.6,0.1-0.8,0.2
		c-0.4,0.2-0.6,0.5-0.7,0.7v0.3h0.6c0-0.2,0.1-0.7,0.9-0.7c0,0,0,0,0.1,0v-0.5H15.5z M15.5-73.1c-0.2,0-0.5,0.1-0.9,0.2
		s-0.9,0.4-0.9,1l0,0v0.1c0,0.6,0.6,1,1.5,1c0.1,0,0.2,0,0.3,0v-0.5c-0.1,0-0.2,0-0.3,0c-0.4,0-0.8-0.2-0.7-0.6
		c0-0.3,0.3-0.5,0.4-0.5c0.2-0.1,0.4-0.1,0.6-0.1L15.5-73.1L15.5-73.1z"/>
	<path class="st4" d="M25.6-74.2c-0.3-1-1.1-1.6-2.4-1.6c-0.7,0-1.4,0.3-1.6,0.5c-0.7,0.5-0.9,1.3-0.9,2s0.3,1.5,0.9,2
		c0.3,0.2,0.9,0.5,1.6,0.5c1.3,0,2.2-0.8,2.5-1.9H25c-0.3,0.9-0.8,1.3-1.7,1.3c-0.5,0-0.9-0.1-1.3-0.4c-0.3-0.3-0.6-0.9-0.6-1.5
		s0.2-1.2,0.6-1.5c0.3-0.3,0.8-0.4,1.3-0.4c0.8,0,1.3,0.4,1.5,1H25.6L25.6-74.2z"/>
	<path class="st4" d="M29.7-72.8c0-1.7-1.2-2-2-2v0.6c0.9,0,1.3,0.8,1.3,1.4s-0.3,1.4-1.3,1.4v0.6C28.5-70.8,29.7-71.1,29.7-72.8z
		 M27.7-74.8L27.7-74.8c-0.8,0-2,0.3-2,2s1.2,2,2,2l0,0v-0.6l0,0c-0.9,0-1.3-0.8-1.3-1.4s0.3-1.4,1.3-1.4l0,0V-74.8z"/>
	<path class="st4" d="M30.7-74.7v3.9h0.6v-2.1c0-1.1,0.5-1.4,1-1.4c0.4,0,0.8,0.3,0.8,0.7v2.7h0.6v-3c-0.1-0.6-0.4-0.8-0.6-0.9
		c-0.1,0-0.3,0-0.6,0s-0.6,0-0.7,0.2c-0.1,0.1-0.3,0.2-0.4,0.4l0,0v-0.5L30.7-74.7L30.7-74.7z"/>
	<path class="st4" d="M33.7-72c0,0.4,0.1,1,1.3,1.2c0.3,0,0.6,0,0.9,0c0.3,0,0.6-0.1,0.9-0.2c0.5-0.2,0.8-0.5,0.9-0.9
		c0.1-0.4-0.1-0.7-0.5-0.9c-0.3-0.2-0.8-0.2-1.1-0.3c-0.5-0.1-0.9-0.2-1.2-0.3s-0.3-0.3-0.2-0.5s0.5-0.4,1-0.4
		c1.1,0,1.1,0.4,1.1,0.6h0.8c0-0.4-0.2-1.2-1.8-1.2c-1,0-1.8,0.4-1.8,1.1c0,0.5,0.3,0.8,0.7,0.9s1.2,0.3,1.8,0.4
		c0.4,0.1,0.5,0.3,0.5,0.5s-0.1,0.4-0.3,0.5c-0.1,0.1-0.4,0.1-0.6,0.2c-0.3,0-0.5,0-0.7-0.1c-0.6-0.1-0.8-0.4-0.9-0.7h-0.8
		C33.7-72.1,33.7-72,33.7-72z"/>
	<path class="st4" d="M39-75.8h-0.7v1h-0.6v0.6h0.6v2.9c0,0.1,0.2,0.5,0.6,0.5c0.3,0,0.5,0,0.8,0v-0.5c-0.4,0.1-0.7,0-0.7-0.2v-2.6
		h0.7v-0.7H39V-75.8L39-75.8z"/>
	<path class="st4" d="M39.7-70.8h0.7v-2c0-0.7,0.2-1,0.7-1.2c0.2-0.1,0.4-0.1,0.6-0.1v-0.7h-0.4c-0.3,0-0.7,0.3-0.9,0.7l0,0v-0.6
		h-0.7L39.7-70.8L39.7-70.8z"/>
	<path class="st4" d="M44.7-71.1v-3.8h-0.6v2.1c0,0.5-0.1,1.1-0.7,1.3c-0.1,0-0.3,0.1-0.4,0c-0.1,0-0.2,0-0.3-0.1
		c-0.2-0.1-0.3-0.3-0.3-0.6v-2.7h-0.6v3.1c0.1,0.4,0.3,0.7,0.6,0.9c0.1,0,0.3,0.1,0.6,0.1s0.6,0,0.8-0.2c0.1-0.1,0.3-0.2,0.4-0.4
		l0,0v0.4L44.7-71.1L44.7-71.1z"/>
	<path class="st4" d="M49-72.4c0,0.1-0.1,0.3-0.2,0.5c-0.1,0.2-0.5,0.4-0.9,0.4s-0.9-0.1-1.2-0.6c-0.1-0.3-0.2-0.6-0.2-1
		s0.2-0.7,0.4-0.9c0.3-0.3,0.6-0.4,0.9-0.4c0.3,0,0.5,0.1,0.7,0.1c0.3,0.1,0.4,0.3,0.5,0.7h0.7c0-0.4-0.2-0.9-0.6-1
		c-0.3-0.2-0.8-0.4-1.3-0.3c-0.5,0-1,0.2-1.4,0.5c-0.5,0.4-0.7,1-0.7,1.5s0.1,1,0.3,1.3c0.3,0.5,1,0.8,1.6,0.8
		c0.7,0,1.4-0.2,1.8-0.7c0.1-0.2,0.2-0.4,0.2-0.7H49V-72.4z"/>
	<path class="st4" d="M51-75.8h-0.7v1h-0.6v0.6h0.6v2.9c0,0.1,0.2,0.5,0.6,0.5c0.3,0,0.5,0,0.8,0v-0.5c-0.4,0.1-0.7,0-0.7-0.2v-2.6
		h0.7v-0.7H51V-75.8L51-75.8z"/>
	<path class="st4" d="M52.7-74.4h-1v3.6h1V-74.4L52.7-74.4z M52.7-75.8h-1v0.7h1V-75.8z"/>
	<path class="st4" d="M56.7-72.8c0-1.7-1.2-2-2-2v0.6c0.9,0,1.3,0.8,1.3,1.4s-0.3,1.4-1.3,1.4v0.6C55.5-70.8,56.7-71.1,56.7-72.8z
		 M54.7-74.8L54.7-74.8c-0.8,0-2,0.3-2,2s1.2,2,2,2l0,0v-0.6l0,0c-0.9,0-1.3-0.8-1.3-1.4s0.3-1.4,1.3-1.4l0,0V-74.8z"/>
	<path class="st4" d="M57.7-74.7v3.9h0.6v-2.1c0-1.1,0.5-1.4,1-1.4c0.4,0,0.8,0.3,0.8,0.7v2.7h0.6v-3c-0.1-0.6-0.4-0.8-0.6-0.9
		c-0.1,0-0.3,0-0.6,0s-0.6,0-0.8,0.2c-0.1,0.1-0.3,0.2-0.4,0.4l0,0v-0.5L57.7-74.7L57.7-74.7z"/>
	<path class="st4" d="M7.9-80.1V-81h1.7v-5.1H7.9V-87h2.8c0.5,0,1,0.4,1,0.9v6H7.9L7.9-80.1z M4.2-86.2H2.5v-0.9h1.6V-88h2.1v0.9
		h1.7v0.9H6.3v5.1H8v0.9H6.3v1.1H4.2v-1.1H2.5V-81h1.6L4.2-86.2L4.2-86.2z M2.5-86.2H0.9v5.1h1.7v0.9h-3.8v-6c0-0.5,0.4-0.9,1-0.9
		h2.8L2.5-86.2L2.5-86.2z"/>
	<polygon class="st4" points="49.7,-80.7 49.7,-86 45.7,-86 45.7,-85.1 47.5,-85.1 47.5,-80 	"/>
	<path class="st4" d="M50.7-82v2c0,0-0.7,0.7-1.8,1.2c-1.1,0.6-2.1,0.8-2.1,0.8l-1.1-1.3c0,0,1.8-0.4,2.7-1
		C49.6-80.9,50.7-82,50.7-82z"/>
	<polygon class="st4" points="20.2,-84 20.2,-85.1 17.7,-85.1 17.7,-86 24.7,-86 24.7,-85.1 22.2,-85.1 22.2,-84 24.6,-84 24.6,-83 
		22.2,-83 22.2,-80.9 24.7,-80.9 24.7,-80 17.7,-80 17.7,-80.9 20.2,-80.9 20.2,-83 17.9,-83 17.9,-84 	"/>
	<path class="st4" d="M20.7-78.9h4V-87h-4v-1h5.1c0.5,0,0.9,0.4,0.9,1v9h-6V-78.9z M16.7-87v8.1h4v0.9h-6v-9c0-0.5,0.4-1,0.9-1h5.1
		v1H16.7z"/>
	<path class="st4" d="M24.7-81h-0.6c0,0-0.3,0-0.6-0.1c-0.3-0.2-0.4-0.7-0.4-0.7L22.7-83H24l0.4,0.9h0.4L24.7-81L24.7-81z"/>
	<path class="st4" d="M41-85.7v-0.7h-0.7v-1H42c0.5,0,1,0.4,1,1v0.7h0.7v1H43v1.6h-2.8v-1H41v-0.7h-0.7v-1L41-85.7L41-85.7z
		 M40.2-78v-1h3.4v1H40.2L40.2-78z M40.2-79.7v-1H43v1H40.2L40.2-79.7z M40.2-81.4v-1H43v1H40.2z M40.2-86.4h-0.7v0.7h0.7v1h-0.7
		v0.7h0.7v1h-0.7v0.7h0.7v1h-0.7v0.7h0.7v1h-0.7v0.7h0.7v1h-4.9c-2.4,0-4.3-1.8-4.6-4.2h1c0.3,1.8,1.9,3.2,3.8,3.2h2v-0.7h-3v-1h3
		v-0.7h-2.8v-1h2.8V-83H35v-1h2.5v-0.7h-2.9v-1h2.9v-0.7H35v-1h2.5V-88h1.9v0.6h0.7L40.2-86.4L40.2-86.4z"/>
	<path class="st4" d="M32.9-82.6c0,1.2-1,2.2-2.2,2.3v1.3c2,0,3.6-1.5,3.6-3.4v-2.5h-1.2c1.1-0.6,1.6-1.8,1.6-3.1h-4v0.9H33
		c-0.2,1.1-1,1.9-2.1,2.1v0.9h2V-82.6z"/>
	<path class="st4" d="M58.7-85.5c0,0.2-0.1,0.6,0.7,0.5h0.3v1h-1.2c-2,0-1.8-1.2-1.9-1.7V-87h-2.9v1.3c0,0.5,0.2,1.8-1.9,1.7h-1.2
		v-1h0.3c0.8,0.1,0.7-0.3,0.7-0.5V-88h5.1h0.9c0.5,0,0.9,0.4,0.9,1L58.7-85.5L58.7-85.5z"/>
	<rect x="83.7" y="-87" class="st4" width="8" height="1"/>
	<path class="st4" d="M82.3-83.2v5.2h-1.8v-3.8c-0.3,0.2-0.7,0.4-1.1,0.5l-0.7-1.2c1.6-0.8,3.2-2.1,3.9-3.6l1.1,1
		C83.3-84.4,82.9-83.7,82.3-83.2z"/>
	<path class="st4" d="M88.4-78c1,0,1.7-0.7,1.7-1.6v-3.5h1.5V-84h-9v0.9H88v3.7c0,0.3-0.3,0.5-0.6,0.5h-2.3v0.9H88.4z"/>
	<path class="st4" d="M81.7-86.9c-0.7,1.6-1.9,3-3.3,3.9l-0.7-1.4c1.2-0.9,2.2-2,2.9-3.6L81.7-86.9z"/>
	<path class="st4" d="M59.7-82.9V-84h-8.9v1h6.7c-1.7,1.6-4.1,2.6-6.7,2.7v1.3C54.4-79,57.6-80.5,59.7-82.9z"/>
	<path class="st4" d="M50.7-82c2.2,2.4,5.4,4,9,4v-1.4c-2.5-0.2-4.8-1.1-6.7-2.6H50.7L50.7-82z"/>
	<rect x="45.7" y="-88" class="st4" width="4" height="1"/>
	<path class="st4" d="M71.7-86h1.6v-1h-1.6v-1h2.6c0.5,0,0.9,0.4,0.9,1v4h-3.6v-1h1.6v-1h-1.6L71.7-86L71.7-86z M71.7-80.3v-2.1h0.5
		c0.1,0.5,0.3,0.8,0.6,1.2c0.1,0.1,0.2,0.3,0.3,0.3c0.5-0.4,0.9-1,1.2-1.5h1.5c-0.4,0.9-1,1.7-1.7,2.4c0.5,0.3,1.2,0.6,1.7,0.6v1.4
		C74.2-78,72.7-78.9,71.7-80.3z M70-86h1.7v1H70v1h1.7v1H70v3.6c0.3,0,1.2-0.3,1.6-0.5v1.5c-0.9,0.3-1.9,0.5-2.9,0.5h-1v-1.3h0.4
		V-88h3.5v1H70V-86L70-86z M71.7-82.4h-1c0.2,0.5,0.5,1.2,0.7,1.7c0.1,0.2,0.2,0.3,0.3,0.5V-82.4L71.7-82.4z"/>
	<path class="st4" d="M65.6-79.7v-2.2h2.1v-0.9h-2.1v-1.1h2v-0.9H64c0.2-0.3,0.5-0.6,0.7-0.9h3v-0.9h-2.4c0.2-0.3,0.3-0.6,0.4-0.9
		L64.3-88c-0.5,1.4-1.5,2.6-2.6,3.3l0.9,1.1c0.1-0.1,0.3-0.2,0.4-0.3h1v1.1h-1.3v0.9h1.4v2.6c-0.3,0.1-0.6,0.1-0.9,0.1L64-78
		c1.4-0.1,2.6-0.7,3.6-1.4v-1.5C67.1-80.4,66.4-80,65.6-79.7z"/>
</g>
<g>
	<path class="st5" d="M266.3,489.7c50.3-7,62.7-20.7,108.7-20.7v-13C354.7,456,312.2,475.7,266.3,489.7z"/>
	<path class="st5" d="M0,412.5v15.3c34.1,2.3,67.8,41.9,135.9,58.6C87.6,460.1,41,412.5,0,412.5z"/>
	<path class="st5" d="M266.3,489.7c-17.1,2.4-38.6,4-67.3,4c-24,0-44.7-2.8-63.1-7.3c18.4,10,36.9,16.8,55.6,16.8
		C215.4,503.2,241.3,497.3,266.3,489.7z"/>
	<path class="st6" d="M191.5,503.2c-18.6,0-37.2-6.9-55.6-16.8C67.8,469.6,34.1,430,0,427.7V610h375V469
		c-45.9,0-58.3,13.7-108.7,20.7C241.3,497.3,215.4,503.2,191.5,503.2z"/>
</g>
</svg>
